<svg width="24" height="24" viewBox="0 0 24 24" fill="none" xmlns="http://www.w3.org/2000/svg">
<path d="M10.5 15.251C10.307 15.2362 10.1276 15.1465 9.99998 15.001L6.99998 12.001C6.93314 11.861 6.91133 11.7038 6.93756 11.5509C6.96379 11.398 7.03676 11.2571 7.14643 11.1474C7.2561 11.0377 7.39707 10.9648 7.54993 10.9385C7.70279 10.9123 7.86003 10.9341 7.99998 11.001L10.47 13.471L19 5.00096C19.1399 4.93412 19.2972 4.91231 19.45 4.93854C19.6029 4.96476 19.7439 5.03774 19.8535 5.14741C19.9632 5.25707 20.0362 5.39805 20.0624 5.55091C20.0886 5.70377 20.0668 5.861 20 6.00096L11 15.001C10.8724 15.1465 10.6929 15.2362 10.5 15.251Z" fill="black"/>
<path d="M12.0001 21.0002C10.3916 20.9976 8.81313 20.564 7.42903 19.7444C6.04494 18.9249 4.90578 17.7493 4.13011 16.3402C3.5413 15.2898 3.17695 14.1286 3.06011 12.9302C2.87709 11.1723 3.21572 9.39935 4.03375 7.83264C4.85179 6.26592 6.11302 4.97474 7.66011 4.12017C8.71048 3.53136 9.87164 3.16701 11.0701 3.05017C12.2643 2.92284 13.4718 3.03849 14.6201 3.39017C14.7226 3.41064 14.8196 3.4523 14.905 3.51246C14.9905 3.57263 15.0624 3.64998 15.1162 3.73955C15.1699 3.82913 15.2044 3.92896 15.2174 4.03263C15.2303 4.13631 15.2215 4.24155 15.1914 4.34161C15.1613 4.44167 15.1106 4.53433 15.0427 4.61367C14.9747 4.69301 14.8909 4.75726 14.7966 4.80232C14.7023 4.84738 14.5997 4.87224 14.4952 4.87531C14.3908 4.87839 14.2869 4.85961 14.1901 4.82017C13.2188 4.52756 12.1988 4.43236 11.1901 4.54017C10.1929 4.64145 9.22673 4.94423 8.35011 5.43017C7.50524 5.89628 6.75825 6.52103 6.15011 7.27017C5.52397 8.03333 5.0564 8.91376 4.7748 9.85989C4.49319 10.806 4.4032 11.7988 4.51011 12.7802C4.61138 13.7773 4.91417 14.7435 5.40011 15.6202C5.86621 16.465 6.49096 17.212 7.24011 17.8202C8.00327 18.4463 8.8837 18.9139 9.82982 19.1955C10.776 19.4771 11.7688 19.5671 12.7501 19.4602C13.7473 19.3589 14.7135 19.0561 15.5901 18.5702C16.435 18.1041 17.182 17.4793 17.7901 16.7302C18.4162 15.967 18.8838 15.0866 19.1654 14.1405C19.447 13.1943 19.537 12.2015 19.4301 11.2202C19.4102 11.012 19.4738 10.8044 19.607 10.6431C19.7401 10.4818 19.9319 10.3801 20.1401 10.3602C20.3483 10.3403 20.5559 10.4039 20.7172 10.5371C20.8784 10.6702 20.9802 10.862 21.0001 11.0702C21.1822 12.8291 20.8421 14.6028 20.0222 16.1696C19.2023 17.7364 17.9391 19.027 16.3901 19.8802C15.3286 20.4931 14.1495 20.8748 12.9301 21.0002H12.0001Z" fill="#000066"/>
</svg>
