<svg width="20" height="20" viewBox="0 0 20 20" fill="none" xmlns="http://www.w3.org/2000/svg">
<path d="M2.04469 6.61607C2.2791 6.38173 2.59699 6.25008 2.92844 6.25008C3.2599 6.25008 3.57778 6.38173 3.81219 6.61607L9.99969 12.8036L16.1872 6.61607C16.4229 6.38837 16.7387 6.26238 17.0664 6.26523C17.3942 6.26807 17.7077 6.39953 17.9395 6.63129C18.1712 6.86305 18.3027 7.17657 18.3055 7.50432C18.3084 7.83206 18.1824 8.14781 17.9547 8.38357L10.8834 15.4548C10.649 15.6892 10.3311 15.8208 9.99969 15.8208C9.66824 15.8208 9.35035 15.6892 9.11594 15.4548L2.04469 8.38357C1.81036 8.14916 1.67871 7.83127 1.67871 7.49982C1.67871 7.16836 1.81036 6.85048 2.04469 6.61607Z" fill="#A04200"/>
</svg>
