<svg width="18" height="10" viewBox="0 0 18 10" fill="none" xmlns="http://www.w3.org/2000/svg">
<path d="M1.04518 0.61558C1.27959 0.381241 1.59748 0.249597 1.92893 0.249597C2.26039 0.249597 2.57827 0.381241 2.81268 0.61558L9.00018 6.80308L15.1877 0.61558C15.4234 0.387882 15.7392 0.261889 16.0669 0.264737C16.3947 0.267585 16.7082 0.399046 16.94 0.630806C17.1717 0.862566 17.3032 1.17608 17.306 1.50383C17.3089 1.83157 17.1829 2.14733 16.9552 2.38308L9.88393 9.45433C9.64952 9.68867 9.33164 9.82031 9.00018 9.82031C8.66873 9.82031 8.35084 9.68867 8.11643 9.45433L1.04518 2.38308C0.810843 2.14867 0.679199 1.83078 0.679199 1.49933C0.679199 1.16787 0.810843 0.849989 1.04518 0.61558Z" fill="#928F9A"/>
</svg>
