<svg width="30" height="30" viewBox="0 0 30 30" fill="none" xmlns="http://www.w3.org/2000/svg">
<mask id="mask0_31_1806" style="mask-type:alpha" maskUnits="userSpaceOnUse" x="-1" y="-1" width="32" height="32">
<rect x="-0.5" y="-0.5" width="31" height="31" rx="1.5" fill="#D9D9D9" stroke="#000066"/>
</mask>
<g mask="url(#mask0_31_1806)">
<path d="M7.02218 23.3636C7.45176 23.7932 8.14824 23.7932 8.57782 23.3636L15 16.9414L21.4222 23.3636C21.8518 23.7932 22.5482 23.7932 22.9778 23.3636L23.3636 22.9778C23.7932 22.5482 23.7932 21.8518 23.3636 21.4222L16.9414 15L23.3636 8.57782C23.7932 8.14824 23.7932 7.45176 23.3636 7.02218L22.9778 6.6364C22.5482 6.20682 21.8518 6.20682 21.4222 6.6364L15 13.0586L8.57782 6.6364C8.14824 6.20682 7.45176 6.20682 7.02218 6.6364L6.6364 7.02218C6.20682 7.45176 6.20682 8.14824 6.6364 8.57782L13.0586 15L6.6364 21.4222C6.20682 21.8518 6.20682 22.5482 6.6364 22.9778L7.02218 23.3636Z" fill="#000066" stroke="#000066" stroke-width="0.2"/>
</g>
</svg>
