<svg width="30" height="30" viewBox="0 0 18 16" fill="none" xmlns="http://www.w3.org/2000/svg">
<path d="M3.1665 3.00065C3.1665 3.44268 3.3421 3.8666 3.65466 4.17916C3.96722 4.49172 4.39114 4.66732 4.83317 4.66732C5.2752 4.66732 5.69912 4.49172 6.01168 4.17916C6.32424 3.8666 6.49984 3.44268 6.49984 3.00065C6.49984 2.55862 6.32424 2.1347 6.01168 1.82214C5.69912 1.50958 5.2752 1.33398 4.83317 1.33398C4.39114 1.33398 3.96722 1.50958 3.65466 1.82214C3.3421 2.1347 3.1665 2.55862 3.1665 3.00065Z" stroke="white" stroke-width="2" stroke-linecap="round" stroke-linejoin="round"/>
<path d="M1.5 10.5009C1.5 10.5009 2.01333 5.88091 3.44333 3.89258M6.1975 3.92758C8.46167 6.68841 11.0992 14.6676 13.1667 14.6676C14.8333 14.6676 15.9444 12.1676 16.5 7.16758" stroke="white" stroke-width="2" stroke-linecap="round" stroke-linejoin="round"/>
</svg>
