<svg width="30" height="30" viewBox="0 0 30 30" fill="none" xmlns="http://www.w3.org/2000/svg">
<g clip-path="url(#clip0_2089_1302)">
<path d="M15 1.25L3.75 6.25V13.75C3.75 20.6875 8.55 27.175 15 28.75C21.45 27.175 26.25 20.6875 26.25 13.75V6.25L15 1.25ZM15 3.975L23.75 7.875V14.025C23.75 16.15 23.125 18.3125 22.0625 20.2125C20 18.675 16.575 18.125 15 18.125C13.425 18.125 10 18.675 7.9375 20.2125C6.875 18.3125 6.25 16.15 6.25 14.025V7.875L15 3.975ZM15 7.5C13.8397 7.5 12.7269 7.96094 11.9064 8.78141C11.0859 9.60188 10.625 10.7147 10.625 11.875C10.625 13.0353 11.0859 14.1481 11.9064 14.9686C12.7269 15.7891 13.8397 16.25 15 16.25C16.1603 16.25 17.2731 15.7891 18.0936 14.9686C18.9141 14.1481 19.375 13.0353 19.375 11.875C19.375 10.7147 18.9141 9.60188 18.0936 8.78141C17.2731 7.96094 16.1603 7.5 15 7.5Z" fill="white"/>
</g>
<defs>
<clipPath id="clip0_2089_1302">
<rect width="30" height="30" fill="white"/>
</clipPath>
</defs>
</svg>
