<svg width="30" height="30" viewBox="0 0 30 30" fill="none" xmlns="http://www.w3.org/2000/svg">
<path d="M13.497 4.78237C13.91 4.41132 14.4456 4.20605 15.0007 4.20605C15.5559 4.20605 16.0915 4.41132 16.5045 4.78237L24.7545 12.1954C24.9891 12.4063 25.1767 12.6642 25.3051 12.9523C25.4335 13.2405 25.4999 13.5524 25.5 13.8679V24.4504C25.5 25.0471 25.2629 25.6194 24.841 26.0414C24.419 26.4633 23.8467 26.7004 23.25 26.7004H19.5C18.9033 26.7004 18.331 26.4633 17.909 26.0414C17.4871 25.6194 17.25 25.0471 17.25 24.4504V19.2004C17.25 19.0015 17.171 18.8107 17.0303 18.67C16.8897 18.5294 16.6989 18.4504 16.5 18.4504H13.5C13.3011 18.4504 13.1103 18.5294 12.9697 18.67C12.829 18.8107 12.75 19.0015 12.75 19.2004V24.4504C12.75 25.0471 12.5129 25.6194 12.091 26.0414C11.669 26.4633 11.0967 26.7004 10.5 26.7004H6.75C6.15326 26.7004 5.58097 26.4633 5.15901 26.0414C4.73705 25.6194 4.5 25.0471 4.5 24.4504V13.8679C4.5 13.2304 4.77 12.6229 5.247 12.1954L13.497 4.78237ZM15.501 5.89837C15.3634 5.77482 15.1849 5.70649 15 5.70649C14.8151 5.70649 14.6366 5.77482 14.499 5.89837L6.249 13.3114C6.17085 13.3815 6.1083 13.4673 6.0654 13.5632C6.02251 13.659 6.00023 13.7628 6 13.8679V24.4504C6 24.6493 6.07902 24.84 6.21967 24.9807C6.36032 25.1213 6.55109 25.2004 6.75 25.2004H10.5C10.6989 25.2004 10.8897 25.1213 11.0303 24.9807C11.171 24.84 11.25 24.6493 11.25 24.4504V19.2004C11.25 18.6036 11.4871 18.0313 11.909 17.6094C12.331 17.1874 12.9033 16.9504 13.5 16.9504H16.5C17.0967 16.9504 17.669 17.1874 18.091 17.6094C18.5129 18.0313 18.75 18.6036 18.75 19.2004V24.4504C18.75 24.6493 18.829 24.84 18.9697 24.9807C19.1103 25.1213 19.3011 25.2004 19.5 25.2004H23.25C23.4489 25.2004 23.6397 25.1213 23.7803 24.9807C23.921 24.84 24 24.6493 24 24.4504V13.8679C23.9998 13.7628 23.9775 13.659 23.9346 13.5632C23.8917 13.4673 23.8292 13.3815 23.751 13.3114L15.501 5.89837Z" fill="white" stroke="white"/>
</svg>

