<svg width="20" height="21" viewBox="0 0 20 21" fill="none" xmlns="http://www.w3.org/2000/svg">
<path d="M10.8332 16.332C10.8332 16.0487 10.8665 15.7737 10.9082 15.4987H3.33317V7.16536L9.99984 11.332L16.6665 7.16536V11.407C17.2665 11.507 17.8248 11.7154 18.3332 12.007V5.4987C18.3332 4.58203 17.5832 3.83203 16.6665 3.83203H3.33317C2.4165 3.83203 1.6665 4.58203 1.6665 5.4987V15.4987C1.6665 16.4154 2.4165 17.1654 3.33317 17.1654H10.9082C10.8665 16.8904 10.8332 16.6154 10.8332 16.332ZM16.6665 5.4987L9.99984 9.66536L3.33317 5.4987H16.6665ZM16.6665 18.832V17.1654H13.3332V15.4987H16.6665V13.832L19.1665 16.332L16.6665 18.832Z" fill="#000066"/>
</svg>
