<svg width="20" height="21" viewBox="0 0 20 21" fill="none" xmlns="http://www.w3.org/2000/svg">
<mask id="mask0_1881_643" style="mask-type:alpha" maskUnits="userSpaceOnUse" x="0" y="0" width="20" height="21">
<rect y="0.961426" width="20" height="20" fill="#D9D9D9"/>
</mask>
<g mask="url(#mask0_1881_643)">
<path d="M5.33333 15.6281H6.28333L12.8 9.11143L11.85 8.16143L5.33333 14.6781V15.6281ZM4 16.9614V14.1281L12.8 5.34476C12.9333 5.22254 13.0806 5.12809 13.2417 5.06143C13.4028 4.99476 13.5722 4.96143 13.75 4.96143C13.9278 4.96143 14.1 4.99476 14.2667 5.06143C14.4333 5.12809 14.5778 5.22809 14.7 5.36143L15.6167 6.29476C15.75 6.41698 15.8472 6.56143 15.9083 6.72809C15.9694 6.89476 16 7.06143 16 7.22809C16 7.40587 15.9694 7.57531 15.9083 7.73643C15.8472 7.89754 15.75 8.04476 15.6167 8.17809L6.83333 16.9614H4ZM12.3167 8.64476L11.85 8.16143L12.8 9.11143L12.3167 8.64476Z" fill="#000066"/>
</g>
</svg>
