<svg xmlns="http://www.w3.org/2000/svg" width="29" height="32" viewBox="0 0 29 32" fill="none">
<path d="M10.5618 20.8438C10.5618 20.5868 10.6545 20.3404 10.8196 20.1587C10.9846 19.9771 11.2085 19.875 11.4419 19.875H16.7229C16.9563 19.875 17.1802 19.9771 17.3453 20.1587C17.5103 20.3404 17.603 20.5868 17.603 20.8438C17.603 21.1007 17.5103 21.3471 17.3453 21.5288C17.1802 21.7104 16.9563 21.8125 16.7229 21.8125H11.4419C11.2085 21.8125 10.9846 21.7104 10.8196 21.5288C10.6545 21.3471 10.5618 21.1007 10.5618 20.8438ZM7.04114 15.0312C7.04114 14.7743 7.13387 14.5279 7.29893 14.3462C7.464 14.1646 7.68787 14.0625 7.9213 14.0625H20.2435C20.4769 14.0625 20.7008 14.1646 20.8659 14.3462C21.0309 14.5279 21.1237 14.7743 21.1237 15.0312C21.1237 15.2882 21.0309 15.5346 20.8659 15.7163C20.7008 15.8979 20.4769 16 20.2435 16H7.9213C7.68787 16 7.464 15.8979 7.29893 15.7163C7.13387 15.5346 7.04114 15.2882 7.04114 15.0312ZM3.52051 9.21875C3.52051 8.96182 3.61324 8.71542 3.7783 8.53374C3.94336 8.35206 4.16723 8.25 4.40067 8.25H23.7642C23.9976 8.25 24.2215 8.35206 24.3865 8.53374C24.5516 8.71542 24.6443 8.96182 24.6443 9.21875C24.6443 9.47568 24.5516 9.72208 24.3865 9.90376C24.2215 10.0854 23.9976 10.1875 23.7642 10.1875H4.40067C4.16723 10.1875 3.94336 10.0854 3.7783 9.90376C3.61324 9.72208 3.52051 9.47568 3.52051 9.21875Z" fill="#000066"/>
</svg>
