<svg width="20" height="20" viewBox="0 0 30 30" fill="none" xmlns="http://www.w3.org/2000/svg">
<mask id="mask0_31_1803" style="mask-type:alpha" maskUnits="userSpaceOnUse" x="0" y="0" width="30" height="30">
<rect width="30" height="30" fill="#D9D9D9"/>
</mask>
<g mask="url(#mask0_31_1803)">
<path d="M6 26C5.44772 26 5 25.5523 5 25V24.9C5 24.3477 5.44772 23.9 6 23.9H24C24.5523 23.9 25 24.3477 25 24.9V25C25 25.5523 24.5523 26 24 26H6ZM15.7338 21.0075C15.338 21.435 14.662 21.435 14.2662 21.0075L7.80501 14.0294C7.21223 13.3892 7.66628 12.35 8.53877 12.35H11.25V6C11.25 5.44771 11.6977 5 12.25 5H17.75C18.3023 5 18.75 5.44772 18.75 6V12.35H21.4612C22.3337 12.35 22.7878 13.3892 22.195 14.0294L15.7338 21.0075Z" fill="#000066"/>
</g>
</svg>
