<svg width="20" height="20" viewBox="0 0 20 20" fill="none" xmlns="http://www.w3.org/2000/svg">
<mask id="mask0_2224_2636" style="mask-type:alpha" maskUnits="userSpaceOnUse" x="-1" y="-1" width="22" height="22">
<rect x="-0.5" y="-0.5" width="21" height="21" rx="1.5" fill="#D9D9D9" stroke="#000066"/>
</mask>
<g mask="url(#mask0_2224_2636)">
<path d="M12.5368 14.8358C12.4391 14.9335 12.2809 14.9335 12.1832 14.8358L12.1642 14.8168C12.0665 14.7191 12.0665 14.5609 12.1642 14.4632L13.5546 13.0727C13.6491 12.9782 13.5822 12.8167 13.4486 12.8167H12.5333C12.3953 12.8167 12.2833 12.7047 12.2833 12.5667V12.5333C12.2833 12.3953 12.3953 12.2833 12.5333 12.2833H14.4667C14.6047 12.2833 14.7167 12.3953 14.7167 12.5333V14.4667C14.7167 14.6047 14.6047 14.7167 14.4667 14.7167H14.4333C14.2953 14.7167 14.1833 14.6047 14.1833 14.4667V13.5514C14.1833 13.4178 14.0218 13.3509 13.9273 13.4454L12.5368 14.8358ZM4.33673 15.0633C4.59409 15.3206 4.90497 15.45 5.26667 15.45H8.84377C9.18182 15.45 9.39748 15.0942 9.2963 14.7829C9.27148 14.7065 9.24911 14.6287 9.22918 14.5495C9.16343 14.2881 8.93811 14.0833 8.66189 14.0833H5.31667V9.11417V9.06667V5.31667H13.6333C13.8819 5.31667 14.0833 5.51814 14.0833 5.76667V8.68052C14.0833 8.95536 14.2862 9.18033 14.5458 9.24759C14.6202 9.26686 14.6939 9.28837 14.767 9.31213C15.0886 9.41663 15.45 9.19259 15.45 8.84506V5.26667C15.45 4.90497 15.3206 4.59409 15.0633 4.33673C14.8059 4.07937 14.495 3.95 14.1333 3.95H5.26667C4.90497 3.95 4.59409 4.07937 4.33673 4.33673C4.07937 4.59409 3.95 4.90497 3.95 5.26667V14.1333C3.95 14.495 4.07937 14.8059 4.33673 15.0633ZM6.48333 12.3667C6.48333 12.6704 6.72958 12.9167 7.03333 12.9167H8.68052C8.95536 12.9167 9.18033 12.7138 9.24759 12.4542C9.26686 12.3798 9.28837 12.3061 9.31213 12.233C9.41839 11.906 9.18514 11.55 8.83517 11.55H7.03333C6.72958 11.55 6.48333 11.7962 6.48333 12.1V12.3667ZM6.48333 9.83333C6.48333 10.1371 6.72958 10.3833 7.03333 10.3833H10.1989C10.339 10.3833 10.4719 10.3291 10.5763 10.2389C10.8725 9.98299 11.1974 9.76546 11.5513 9.58627C11.9572 9.38078 12.391 9.24098 12.8529 9.16696C12.8895 9.1611 12.9167 9.1296 12.9167 9.09225C12.9167 9.05051 12.8828 9.01667 12.8411 9.01667H7.03333C6.72958 9.01667 6.48333 9.26291 6.48333 9.56667V9.83333ZM6.48333 7.3C6.48333 7.60376 6.72958 7.85 7.03333 7.85H12.3667C12.6704 7.85 12.9167 7.60376 12.9167 7.3V7.03333C12.9167 6.72958 12.6704 6.48333 12.3667 6.48333H7.03333C6.72958 6.48333 6.48333 6.72958 6.48333 7.03333V7.3ZM11.2242 15.7758C11.8511 16.4027 12.6107 16.7167 13.5 16.7167C14.3893 16.7167 15.1489 16.4027 15.7758 15.7758C16.4027 15.1489 16.7167 14.3893 16.7167 13.5C16.7167 12.6107 16.4027 11.8511 15.7758 11.2242C15.1489 10.5973 14.3893 10.2833 13.5 10.2833C12.6107 10.2833 11.8511 10.5973 11.2242 11.2242C10.5973 11.8511 10.2833 12.6107 10.2833 13.5C10.2833 14.3893 10.5973 15.1489 11.2242 15.7758Z" fill="#000066" stroke="#000066" stroke-width="0.1"/>
</g>
</svg>
