<svg width="30" height="30" viewBox="0 0 30 30" fill="none" xmlns="http://www.w3.org/2000/svg">
<mask id="mask0_31_1815" style="mask-type:alpha" maskUnits="userSpaceOnUse" x="-1" y="-1" width="32" height="32">
<rect x="-0.5" y="-0.5" width="31" height="31" rx="1.5" fill="#D9D9D9" stroke="#000066"/>
</mask>
<g mask="url(#mask0_31_1815)">
<path d="M18.7168 22.3775C18.6191 22.4751 18.4609 22.4751 18.3632 22.3775L18.1225 22.1368C18.0249 22.0391 18.0249 21.8809 18.1225 21.7832L20.3996 19.5061C20.4941 19.4116 20.4272 19.25 20.2936 19.25H18.65C18.5119 19.25 18.4 19.1381 18.4 19V18.65C18.4 18.5119 18.5119 18.4 18.65 18.4H21.85C21.9881 18.4 22.1 18.5119 22.1 18.65V21.85C22.1 21.9881 21.9881 22.1 21.85 22.1H21.5C21.3619 22.1 21.25 21.9881 21.25 21.85V20.2064C21.25 20.0728 21.0884 20.0059 20.9939 20.1004L18.7168 22.3775ZM6.52277 22.5772C6.90416 22.9586 7.36413 23.15 7.9 23.15H13.4322C13.8429 23.15 14.1069 22.7175 13.9737 22.3387C13.9555 22.2869 13.9378 22.2347 13.9207 22.182C13.8615 21.9999 13.8115 21.8125 13.7708 21.6196C13.7147 21.3541 13.4869 21.15 13.2111 21.15H7.95V13.6712V13.6V7.95H20.7C20.9485 7.95 21.15 8.15147 21.15 8.4V13.2376C21.15 13.5121 21.3522 13.7393 21.6159 13.7972C21.7992 13.8374 21.98 13.8865 22.1583 13.9444C22.2236 13.9657 22.2887 13.9878 22.3533 14.0107C22.7282 14.1436 23.15 13.8803 23.15 13.4749V7.9C23.15 7.36413 22.9586 6.90416 22.5772 6.52277C22.1958 6.14138 21.7359 5.95 21.2 5.95H7.9C7.36413 5.95 6.90416 6.14138 6.52277 6.52277C6.14138 6.90416 5.95 7.36413 5.95 7.9V21.2C5.95 21.7359 6.14138 22.1958 6.52277 22.5772ZM9.75 18.8C9.75 19.1038 9.99624 19.35 10.3 19.35H13.2376C13.5121 19.35 13.7393 19.1478 13.7972 18.8841C13.8374 18.7008 13.8865 18.52 13.9444 18.3417C13.9686 18.2672 13.9935 18.1931 14.0191 18.1194C14.1467 17.7514 13.8826 17.35 13.4882 17.35H10.3C9.99624 17.35 9.75 17.5962 9.75 17.9V18.8ZM9.75 15C9.75 15.3038 9.99624 15.55 10.3 15.55H15.3973C15.5372 15.55 15.6707 15.4961 15.7743 15.4041C16.2397 14.9908 16.7535 14.6418 17.3157 14.3571C17.9269 14.0477 18.58 13.8372 19.2754 13.7257C19.3182 13.7189 19.35 13.682 19.35 13.6384C19.35 13.5896 19.3104 13.55 19.2616 13.55H10.3C9.99624 13.55 9.75 13.7962 9.75 14.1V15ZM9.75 11.2C9.75 11.5038 9.99624 11.75 10.3 11.75H18.8C19.1038 11.75 19.35 11.5038 19.35 11.2V10.3C19.35 9.99624 19.1038 9.75 18.8 9.75H10.3C9.99624 9.75 9.75 9.99624 9.75 10.3V11.2ZM16.854 23.646C17.7897 24.5816 18.9226 25.05 20.25 25.05C21.5774 25.05 22.7103 24.5816 23.646 23.646C24.5816 22.7103 25.05 21.5774 25.05 20.25C25.05 18.9226 24.5816 17.7897 23.646 16.854C22.7103 15.9184 21.5774 15.45 20.25 15.45C18.9226 15.45 17.7897 15.9184 16.854 16.854C15.9184 17.7897 15.45 18.9226 15.45 20.25C15.45 21.5774 15.9184 22.7103 16.854 23.646Z" fill="#000066" stroke="#000066" stroke-width="0.1"/>
</g>
</svg>
