<svg width="30" height="30" viewBox="0 0 20 21" fill="none" xmlns="http://www.w3.org/2000/svg">
<mask id="mask0_1664_10488" style="mask-type:alpha" maskUnits="userSpaceOnUse" x="0" y="0" width="20" height="21">
<rect y="0.961426" width="20" height="20" fill="#D9D9D9"/>
</mask>
<g mask="url(#mask0_1664_10488)">
<path d="M5.51056 15.0193C6.86059 15.9362 8.35796 16.3949 10.0001 16.3949C11.6422 16.3949 13.1396 15.9362 14.4896 15.0193C15.7304 14.1766 16.6583 13.0693 17.2719 11.6992C17.387 11.442 17.387 11.1478 17.2719 10.8907C16.6583 9.52051 15.7304 8.41326 14.4896 7.57053C13.1396 6.65364 11.6422 6.19492 10.0001 6.19492C8.35796 6.19492 6.86059 6.65364 5.51056 7.57053C4.26973 8.41326 3.34187 9.52051 2.7283 10.8907C2.61314 11.1478 2.61314 11.442 2.7283 11.6992C3.34187 13.0693 4.26973 14.1766 5.51056 15.0193ZM13.4051 13.8853C12.3713 14.5362 11.237 14.8616 10.0001 14.8616C8.76314 14.8616 7.62887 14.5362 6.59503 13.8853C5.69819 13.3206 4.98508 12.5858 4.4546 11.6801C4.31521 11.4421 4.31521 11.1477 4.4546 10.9097C4.98508 10.004 5.69819 9.26922 6.59503 8.70455C7.62887 8.05361 8.76314 7.72826 10.0001 7.72826C11.237 7.72826 12.3713 8.05361 13.4051 8.70455C14.302 9.26922 15.0151 10.004 15.5456 10.9097C15.685 11.1477 15.685 11.4421 15.5456 11.6801C15.0151 12.5858 14.302 13.3206 13.4051 13.8853ZM9.86372 14.0616C10.6847 14.0616 11.3861 13.7796 11.962 13.2164C12.5381 12.6532 12.8274 11.9663 12.8274 11.1616C12.8274 10.3569 12.5381 9.66999 11.962 9.10676C11.3861 8.54361 10.6847 8.26159 9.86372 8.26159C9.04276 8.26159 8.34134 8.54361 7.7654 9.10676C7.18936 9.66999 6.90008 10.3569 6.90008 11.1616C6.90008 11.9663 7.18936 12.6532 7.7654 13.2164C8.34134 13.7796 9.04276 14.0616 9.86372 14.0616ZM9.86372 12.7416C9.41195 12.7416 9.03155 12.5881 8.71658 12.2801C8.40171 11.9722 8.24554 11.6013 8.24554 11.1616C8.24554 10.7219 8.40171 10.351 8.71658 10.0431C9.03155 9.73513 9.41195 9.58159 9.86372 9.58159C10.3155 9.58159 10.6959 9.73513 11.0109 10.0431C11.3257 10.351 11.4819 10.7219 11.4819 11.1616C11.4819 11.6013 11.3257 11.9722 11.0109 12.2801C10.6959 12.5881 10.3155 12.7416 9.86372 12.7416Z" fill="#000066" stroke="#000066" stroke-width="0.2"/>
</g>
</svg>
