<svg width="1275" height="53" viewBox="0 0 1275 53" fill="none" xmlns="http://www.w3.org/2000/svg">
<mask id="path-1-inside-1_1664_10506" fill="white">
<path d="M0 0.961426H1275V52.9614H0V0.961426Z"/>
</mask>
<path d="M0 0.961426H1275V52.9614H0V0.961426Z" fill="white"/>
<path d="M1275 51.9614H0V53.9614H1275V51.9614Z" fill="#000066" mask="url(#path-1-inside-1_1664_10506)"/>
<mask id="path-3-inside-2_1664_10506" fill="white">
<path d="M0 0.961426H283V52.9614H0V0.961426Z"/>
</mask>
<path d="M0 0.961426H283V52.9614H0V0.961426Z" fill="#E4E1EC"/>
<path d="M283 52.9614V53.9614H284V52.9614H283ZM0 52.9614H-1V53.9614H0V52.9614ZM282 0.961426V52.9614H284V0.961426H282ZM283 51.9614H0V53.9614H283V51.9614ZM1 52.9614V0.961426H-1V52.9614H1Z" fill="#000066" mask="url(#path-3-inside-2_1664_10506)"/>
<path d="M15.08 21.7734V31.4614H13.022V21.7734H15.08ZM21.2392 23.8174C21.8926 23.8174 22.4012 24.0181 22.7652 24.4194C23.1292 24.8114 23.3112 25.3574 23.3112 26.0574V31.4614H21.3232V26.3934C21.3232 25.9921 21.2532 25.7121 21.1132 25.5534C20.9826 25.3854 20.7819 25.3014 20.5112 25.3014C20.2312 25.3014 19.9746 25.3901 19.7412 25.5674C19.5172 25.7354 19.2979 25.9921 19.0832 26.3374V31.4614H17.0952V24.0414H18.8172L18.9712 24.9794C19.2792 24.5968 19.6152 24.3074 19.9792 24.1114C20.3526 23.9154 20.7726 23.8174 21.2392 23.8174ZM29.6407 31.1114C29.37 31.2981 29.062 31.4381 28.7167 31.5314C28.3807 31.6341 28.0447 31.6854 27.7087 31.6854C26.9433 31.6761 26.3647 31.4568 25.9727 31.0274C25.5807 30.5981 25.3847 29.9681 25.3847 29.1374V25.4414H24.2787V24.0414H25.3847V22.4174L27.3727 22.1794V24.0414H29.0807L28.8847 25.4414H27.3727V29.0954C27.3727 29.4501 27.4333 29.7068 27.5547 29.8654C27.676 30.0241 27.8627 30.1034 28.1147 30.1034C28.3667 30.1034 28.6467 30.0194 28.9547 29.8514L29.6407 31.1114ZM36.5606 27.5834C36.5606 27.6768 36.5466 27.9334 36.5186 28.3534H31.8846C31.9499 29.0254 32.1319 29.5014 32.4306 29.7814C32.7293 30.0614 33.1353 30.2014 33.6486 30.2014C33.9659 30.2014 34.2646 30.1501 34.5446 30.0474C34.8246 29.9448 35.1279 29.7814 35.4546 29.5574L36.2806 30.6774C35.4499 31.3494 34.5119 31.6854 33.4666 31.6854C32.2999 31.6854 31.4039 31.3354 30.7786 30.6354C30.1533 29.9354 29.8406 28.9881 29.8406 27.7934C29.8406 27.0374 29.9713 26.3608 30.2326 25.7634C30.5033 25.1568 30.8906 24.6808 31.3946 24.3354C31.9079 23.9901 32.5146 23.8174 33.2146 23.8174C34.2693 23.8174 35.0906 24.1488 35.6786 24.8114C36.2666 25.4741 36.5606 26.3981 36.5606 27.5834ZM34.5866 27.0234C34.5866 25.7914 34.1433 25.1754 33.2566 25.1754C32.8459 25.1754 32.5239 25.3294 32.2906 25.6374C32.0666 25.9361 31.9313 26.4261 31.8846 27.1074H34.5866V27.0234ZM39.8475 31.6854C39.2409 31.6854 38.7695 31.5128 38.4335 31.1674C38.0975 30.8128 37.9295 30.3134 37.9295 29.6694V21.0874L39.9175 20.8634V29.6134C39.9175 29.9401 40.0529 30.1034 40.3235 30.1034C40.4729 30.1034 40.6035 30.0754 40.7155 30.0194L41.1215 31.4334C40.7389 31.6014 40.3142 31.6854 39.8475 31.6854ZM44.1301 24.0414V31.4614H42.1421V24.0414H44.1301ZM43.1221 20.2194C43.4768 20.2194 43.7661 20.3314 43.9901 20.5554C44.2234 20.7701 44.3401 21.0454 44.3401 21.3814C44.3401 21.7174 44.2234 21.9974 43.9901 22.2214C43.7661 22.4361 43.4768 22.5434 43.1221 22.5434C42.7674 22.5434 42.4781 22.4361 42.2541 22.2214C42.0301 21.9974 41.9181 21.7174 41.9181 21.3814C41.9181 21.0454 42.0301 20.7701 42.2541 20.5554C42.4781 20.3314 42.7674 20.2194 43.1221 20.2194ZM52.7293 24.4474C52.2439 24.6341 51.5299 24.7274 50.5873 24.7274C51.0539 24.9328 51.3993 25.1894 51.6233 25.4974C51.8473 25.7961 51.9593 26.1741 51.9593 26.6314C51.9593 27.1074 51.8333 27.5368 51.5813 27.9194C51.3386 28.2928 50.9839 28.5868 50.5173 28.8014C50.0599 29.0161 49.5233 29.1234 48.9073 29.1234C48.5806 29.1234 48.2913 29.0908 48.0393 29.0254C47.8526 29.1468 47.7593 29.3101 47.7593 29.5154C47.7593 29.6648 47.8153 29.7861 47.9273 29.8794C48.0486 29.9634 48.2773 30.0054 48.6133 30.0054H49.7473C50.2979 30.0054 50.7786 30.0988 51.1893 30.2854C51.6093 30.4628 51.9313 30.7148 52.1553 31.0414C52.3886 31.3588 52.5053 31.7228 52.5053 32.1334C52.5053 32.8894 52.1786 33.4774 51.5253 33.8974C50.8813 34.3268 49.9479 34.5414 48.7253 34.5414C47.8479 34.5414 47.1526 34.4481 46.6393 34.2614C46.1353 34.0841 45.7806 33.8228 45.5753 33.4774C45.3699 33.1321 45.2673 32.6981 45.2673 32.1754H47.0453C47.0453 32.4181 47.0919 32.6094 47.1853 32.7494C47.2786 32.8988 47.4466 33.0061 47.6893 33.0714C47.9413 33.1461 48.3006 33.1834 48.7673 33.1834C49.4113 33.1834 49.8593 33.1041 50.1113 32.9454C50.3726 32.7868 50.5033 32.5628 50.5033 32.2734C50.5033 32.0121 50.4053 31.8114 50.2093 31.6714C50.0133 31.5314 49.7239 31.4614 49.3413 31.4614H48.2493C47.5119 31.4614 46.9613 31.3261 46.5973 31.0554C46.2333 30.7754 46.0513 30.4254 46.0513 30.0054C46.0513 29.7441 46.1259 29.4921 46.2753 29.2494C46.4339 28.9974 46.6486 28.7874 46.9193 28.6194C46.4619 28.3674 46.1259 28.0734 45.9113 27.7374C45.7059 27.3921 45.6033 26.9814 45.6033 26.5054C45.6033 25.9641 45.7339 25.4928 45.9953 25.0914C46.2659 24.6808 46.6393 24.3681 47.1153 24.1534C47.6006 23.9294 48.1513 23.8174 48.7673 23.8174C49.5326 23.8361 50.1626 23.7708 50.6573 23.6214C51.1519 23.4721 51.6793 23.2388 52.2393 22.9214L52.7293 24.4474ZM48.8093 25.1474C48.4359 25.1474 48.1373 25.2688 47.9133 25.5114C47.6986 25.7448 47.5913 26.0668 47.5913 26.4774C47.5913 26.8974 47.6986 27.2288 47.9133 27.4714C48.1373 27.7141 48.4406 27.8354 48.8233 27.8354C49.2246 27.8354 49.5279 27.7188 49.7333 27.4854C49.9386 27.2521 50.0413 26.9068 50.0413 26.4494C50.0413 25.5814 49.6306 25.1474 48.8093 25.1474ZM59.7071 27.5834C59.7071 27.6768 59.6931 27.9334 59.6651 28.3534H55.0311C55.0964 29.0254 55.2784 29.5014 55.5771 29.7814C55.8757 30.0614 56.2817 30.2014 56.7951 30.2014C57.1124 30.2014 57.4111 30.1501 57.6911 30.0474C57.9711 29.9448 58.2744 29.7814 58.6011 29.5574L59.4271 30.6774C58.5964 31.3494 57.6584 31.6854 56.6131 31.6854C55.4464 31.6854 54.5504 31.3354 53.9251 30.6354C53.2997 29.9354 52.9871 28.9881 52.9871 27.7934C52.9871 27.0374 53.1177 26.3608 53.3791 25.7634C53.6497 25.1568 54.0371 24.6808 54.5411 24.3354C55.0544 23.9901 55.6611 23.8174 56.3611 23.8174C57.4157 23.8174 58.2371 24.1488 58.8251 24.8114C59.4131 25.4741 59.7071 26.3981 59.7071 27.5834ZM57.7331 27.0234C57.7331 25.7914 57.2897 25.1754 56.4031 25.1754C55.9924 25.1754 55.6704 25.3294 55.4371 25.6374C55.2131 25.9361 55.0777 26.4261 55.0311 27.1074H57.7331V27.0234ZM65.29 23.8174C65.9433 23.8174 66.452 24.0181 66.816 24.4194C67.18 24.8114 67.362 25.3574 67.362 26.0574V31.4614H65.374V26.3934C65.374 25.9921 65.304 25.7121 65.164 25.5534C65.0333 25.3854 64.8327 25.3014 64.562 25.3014C64.282 25.3014 64.0253 25.3901 63.792 25.5674C63.568 25.7354 63.3487 25.9921 63.134 26.3374V31.4614H61.146V24.0414H62.868L63.022 24.9794C63.33 24.5968 63.666 24.3074 64.03 24.1114C64.4033 23.9154 64.8233 23.8174 65.29 23.8174ZM72.3474 23.8174C72.8421 23.8174 73.2854 23.8921 73.6774 24.0414C74.0788 24.1814 74.4568 24.4054 74.8114 24.7134L73.9434 25.8894C73.7008 25.7028 73.4628 25.5674 73.2294 25.4834C73.0054 25.3994 72.7581 25.3574 72.4874 25.3574C71.4328 25.3574 70.9054 26.1694 70.9054 27.7934C70.9054 28.6148 71.0408 29.2028 71.3114 29.5574C71.5821 29.9121 71.9694 30.0894 72.4734 30.0894C72.7348 30.0894 72.9728 30.0521 73.1874 29.9774C73.4021 29.8934 73.6541 29.7581 73.9434 29.5714L74.8114 30.8174C74.1021 31.3961 73.2901 31.6854 72.3754 31.6854C71.6474 31.6854 71.0128 31.5268 70.4714 31.2094C69.9394 30.8921 69.5288 30.4441 69.2394 29.8654C68.9501 29.2774 68.8054 28.5914 68.8054 27.8074C68.8054 27.0234 68.9501 26.3328 69.2394 25.7354C69.5288 25.1288 69.9394 24.6574 70.4714 24.3214C71.0128 23.9854 71.6381 23.8174 72.3474 23.8174ZM77.927 24.0414V31.4614H75.939V24.0414H77.927ZM76.919 20.2194C77.2737 20.2194 77.563 20.3314 77.787 20.5554C78.0203 20.7701 78.137 21.0454 78.137 21.3814C78.137 21.7174 78.0203 21.9974 77.787 22.2214C77.563 22.4361 77.2737 22.5434 76.919 22.5434C76.5643 22.5434 76.275 22.4361 76.051 22.2214C75.827 21.9974 75.715 21.7174 75.715 21.3814C75.715 21.0454 75.827 20.7701 76.051 20.5554C76.275 20.3314 76.5643 20.2194 76.919 20.2194ZM85.5602 29.4034C85.5602 29.6928 85.6022 29.9074 85.6862 30.0474C85.7702 30.1781 85.9102 30.2761 86.1062 30.3414L85.6862 31.6574C85.2475 31.6201 84.8882 31.5174 84.6082 31.3494C84.3375 31.1814 84.1275 30.9201 83.9782 30.5654C83.4928 31.3121 82.7508 31.6854 81.7522 31.6854C81.0148 31.6854 80.4268 31.4754 79.9882 31.0554C79.5588 30.6261 79.3442 30.0708 79.3442 29.3894C79.3442 28.5774 79.6382 27.9568 80.2262 27.5274C80.8142 27.0981 81.6588 26.8834 82.7602 26.8834H83.6142V26.5194C83.6142 26.0621 83.5115 25.7448 83.3062 25.5674C83.1008 25.3901 82.7602 25.3014 82.2842 25.3014C81.7615 25.3014 81.1082 25.4321 80.3242 25.6934L79.8762 24.3634C80.8002 23.9994 81.7148 23.8174 82.6202 23.8174C83.6282 23.8174 84.3702 24.0368 84.8462 24.4754C85.3222 24.9048 85.5602 25.5488 85.5602 26.4074V29.4034ZM82.2982 30.2574C82.8582 30.2574 83.2968 29.9821 83.6142 29.4314V28.0174H82.9562C81.8828 28.0174 81.3462 28.4188 81.3462 29.2214C81.3462 29.5481 81.4255 29.8048 81.5842 29.9914C81.7522 30.1688 81.9902 30.2574 82.2982 30.2574ZM96.1304 31.4614L95.5844 29.2914H92.5464L92.0004 31.4614H89.8584L92.8404 21.7734H95.3464L98.3144 31.4614H96.1304ZM92.9384 27.7654H95.1924L94.0584 23.2994L92.9384 27.7654ZM103.004 23.8314C103.228 23.8314 103.475 23.8688 103.746 23.9434L103.41 25.8614C103.148 25.7961 102.929 25.7634 102.752 25.7634C102.313 25.7634 101.972 25.9174 101.73 26.2254C101.487 26.5334 101.296 27.0001 101.156 27.6254V31.4614H99.1675V24.0414H100.89L101.072 25.4834C101.249 24.9608 101.506 24.5548 101.842 24.2654C102.187 23.9761 102.574 23.8314 103.004 23.8314ZM109.17 31.1114C108.899 31.2981 108.591 31.4381 108.246 31.5314C107.91 31.6341 107.574 31.6854 107.238 31.6854C106.473 31.6761 105.894 31.4568 105.502 31.0274C105.11 30.5981 104.914 29.9681 104.914 29.1374V25.4414H103.808V24.0414H104.914V22.4174L106.902 22.1794V24.0414H108.61L108.414 25.4414H106.902V29.0954C106.902 29.4501 106.963 29.7068 107.084 29.8654C107.205 30.0241 107.392 30.1034 107.644 30.1034C107.896 30.1034 108.176 30.0194 108.484 29.8514L109.17 31.1114ZM112.038 24.0414V31.4614H110.05V24.0414H112.038ZM111.03 20.2194C111.385 20.2194 111.674 20.3314 111.898 20.5554C112.132 20.7701 112.248 21.0454 112.248 21.3814C112.248 21.7174 112.132 21.9974 111.898 22.2214C111.674 22.4361 111.385 22.5434 111.03 22.5434C110.676 22.5434 110.386 22.4361 110.162 22.2214C109.938 21.9974 109.826 21.7174 109.826 21.3814C109.826 21.0454 109.938 20.7701 110.162 20.5554C110.386 20.3314 110.676 20.2194 111.03 20.2194ZM117.193 20.8634C118.024 20.8634 118.813 21.0454 119.559 21.4094L118.971 22.7114C118.477 22.4781 117.949 22.3614 117.389 22.3614C116.941 22.3614 116.633 22.4408 116.465 22.5994C116.297 22.7581 116.213 23.0194 116.213 23.3834V24.0414H120.343V31.4614H118.355V25.4414H116.213V31.4614H114.225V25.4414H113.077V24.0414H114.225V23.3274C114.225 22.5901 114.468 21.9974 114.953 21.5494C115.448 21.0921 116.195 20.8634 117.193 20.8634ZM125.394 23.8174C125.889 23.8174 126.332 23.8921 126.724 24.0414C127.126 24.1814 127.504 24.4054 127.858 24.7134L126.99 25.8894C126.748 25.7028 126.51 25.5674 126.276 25.4834C126.052 25.3994 125.805 25.3574 125.534 25.3574C124.48 25.3574 123.952 26.1694 123.952 27.7934C123.952 28.6148 124.088 29.2028 124.358 29.5574C124.629 29.9121 125.016 30.0894 125.52 30.0894C125.782 30.0894 126.02 30.0521 126.234 29.9774C126.449 29.8934 126.701 29.7581 126.99 29.5714L127.858 30.8174C127.149 31.3961 126.337 31.6854 125.422 31.6854C124.694 31.6854 124.06 31.5268 123.518 31.2094C122.986 30.8921 122.576 30.4441 122.286 29.8654C121.997 29.2774 121.852 28.5914 121.852 27.8074C121.852 27.0234 121.997 26.3328 122.286 25.7354C122.576 25.1288 122.986 24.6574 123.518 24.3214C124.06 23.9854 124.685 23.8174 125.394 23.8174ZM130.974 24.0414V31.4614H128.986V24.0414H130.974ZM129.966 20.2194C130.321 20.2194 130.61 20.3314 130.834 20.5554C131.067 20.7701 131.184 21.0454 131.184 21.3814C131.184 21.7174 131.067 21.9974 130.834 22.2214C130.61 22.4361 130.321 22.5434 129.966 22.5434C129.611 22.5434 129.322 22.4361 129.098 22.2214C128.874 21.9974 128.762 21.7174 128.762 21.3814C128.762 21.0454 128.874 20.7701 129.098 20.5554C129.322 20.3314 129.611 20.2194 129.966 20.2194ZM138.607 29.4034C138.607 29.6928 138.649 29.9074 138.733 30.0474C138.817 30.1781 138.957 30.2761 139.153 30.3414L138.733 31.6574C138.294 31.6201 137.935 31.5174 137.655 31.3494C137.384 31.1814 137.174 30.9201 137.025 30.5654C136.54 31.3121 135.798 31.6854 134.799 31.6854C134.062 31.6854 133.474 31.4754 133.035 31.0554C132.606 30.6261 132.391 30.0708 132.391 29.3894C132.391 28.5774 132.685 27.9568 133.273 27.5274C133.861 27.0981 134.706 26.8834 135.807 26.8834H136.661V26.5194C136.661 26.0621 136.558 25.7448 136.353 25.5674C136.148 25.3901 135.807 25.3014 135.331 25.3014C134.808 25.3014 134.155 25.4321 133.371 25.6934L132.923 24.3634C133.847 23.9994 134.762 23.8174 135.667 23.8174C136.675 23.8174 137.417 24.0368 137.893 24.4754C138.369 24.9048 138.607 25.5488 138.607 26.4074V29.4034ZM135.345 30.2574C135.905 30.2574 136.344 29.9821 136.661 29.4314V28.0174H136.003C134.93 28.0174 134.393 28.4188 134.393 29.2214C134.393 29.5481 134.472 29.8048 134.631 29.9914C134.799 30.1688 135.037 30.2574 135.345 30.2574ZM142.305 31.6854C141.698 31.6854 141.227 31.5128 140.891 31.1674C140.555 30.8128 140.387 30.3134 140.387 29.6694V21.0874L142.375 20.8634V29.6134C142.375 29.9401 142.51 30.1034 142.781 30.1034C142.93 30.1034 143.061 30.0754 143.173 30.0194L143.579 31.4334C143.196 31.6014 142.771 31.6854 142.305 31.6854Z" fill="#000066"/>
<mask id="path-6-inside-3_1664_10506" fill="white">
<path d="M283 0.961426H411V52.9614H283V0.961426Z"/>
</mask>
<path d="M410 0.961426V52.9614H412V0.961426H410Z" fill="#000066" mask="url(#path-6-inside-3_1664_10506)"/>
<path d="M318.684 21.7734C319.944 21.7734 320.919 22.0348 321.61 22.5574C322.31 23.0801 322.66 23.8594 322.66 24.8954C322.66 25.9781 322.315 26.7948 321.624 27.3454C320.933 27.8868 320.009 28.1574 318.852 28.1574H317.746V31.4614H315.688V21.7734H318.684ZM318.684 26.6454C319.281 26.6454 319.739 26.5101 320.056 26.2394C320.373 25.9688 320.532 25.5208 320.532 24.8954C320.532 23.8034 319.907 23.2574 318.656 23.2574H317.746V26.6454H318.684ZM329.82 27.5834C329.82 27.6768 329.806 27.9334 329.778 28.3534H325.144C325.21 29.0254 325.392 29.5014 325.69 29.7814C325.989 30.0614 326.395 30.2014 326.908 30.2014C327.226 30.2014 327.524 30.1501 327.804 30.0474C328.084 29.9448 328.388 29.7814 328.714 29.5574L329.54 30.6774C328.71 31.3494 327.772 31.6854 326.726 31.6854C325.56 31.6854 324.664 31.3354 324.038 30.6354C323.413 29.9354 323.1 28.9881 323.1 27.7934C323.1 27.0374 323.231 26.3608 323.492 25.7634C323.763 25.1568 324.15 24.6808 324.654 24.3354C325.168 23.9901 325.774 23.8174 326.474 23.8174C327.529 23.8174 328.35 24.1488 328.938 24.8114C329.526 25.4741 329.82 26.3981 329.82 27.5834ZM327.846 27.0234C327.846 25.7914 327.403 25.1754 326.516 25.1754C326.106 25.1754 325.784 25.3294 325.55 25.6374C325.326 25.9361 325.191 26.4261 325.144 27.1074H327.846V27.0234ZM335.403 23.8174C336.057 23.8174 336.565 24.0181 336.929 24.4194C337.293 24.8114 337.475 25.3574 337.475 26.0574V31.4614H335.487V26.3934C335.487 25.9921 335.417 25.7121 335.277 25.5534C335.147 25.3854 334.946 25.3014 334.675 25.3014C334.395 25.3014 334.139 25.3901 333.905 25.5674C333.681 25.7354 333.462 25.9921 333.247 26.3374V31.4614H331.259V24.0414H332.981L333.135 24.9794C333.443 24.5968 333.779 24.3074 334.143 24.1114C334.517 23.9154 334.937 23.8174 335.403 23.8174ZM345.793 21.0874V31.4614H344.043L343.931 30.5514C343.408 31.3074 342.699 31.6854 341.803 31.6854C340.888 31.6854 340.188 31.3354 339.703 30.6354C339.227 29.9261 338.989 28.9648 338.989 27.7514C338.989 26.9861 339.11 26.3094 339.353 25.7214C339.605 25.1241 339.959 24.6574 340.417 24.3214C340.874 23.9854 341.401 23.8174 341.999 23.8174C342.689 23.8174 343.291 24.0648 343.805 24.5594V20.8634L345.793 21.0874ZM342.391 30.2014C342.68 30.2014 342.937 30.1314 343.161 29.9914C343.385 29.8421 343.599 29.6134 343.805 29.3054V25.9874C343.609 25.7541 343.408 25.5814 343.203 25.4694C343.007 25.3481 342.778 25.2874 342.517 25.2874C342.059 25.2874 341.7 25.4881 341.439 25.8894C341.187 26.2908 341.061 26.9114 341.061 27.7514C341.061 28.6381 341.173 29.2681 341.397 29.6414C341.63 30.0148 341.961 30.2014 342.391 30.2014ZM349.736 24.0414V31.4614H347.748V24.0414H349.736ZM348.728 20.2194C349.082 20.2194 349.372 20.3314 349.596 20.5554C349.829 20.7701 349.946 21.0454 349.946 21.3814C349.946 21.7174 349.829 21.9974 349.596 22.2214C349.372 22.4361 349.082 22.5434 348.728 22.5434C348.373 22.5434 348.084 22.4361 347.86 22.2214C347.636 21.9974 347.524 21.7174 347.524 21.3814C347.524 21.0454 347.636 20.7701 347.86 20.5554C348.084 20.3314 348.373 20.2194 348.728 20.2194ZM357.971 27.5834C357.971 27.6768 357.957 27.9334 357.929 28.3534H353.295C353.36 29.0254 353.542 29.5014 353.841 29.7814C354.139 30.0614 354.545 30.2014 355.059 30.2014C355.376 30.2014 355.675 30.1501 355.955 30.0474C356.235 29.9448 356.538 29.7814 356.865 29.5574L357.691 30.6774C356.86 31.3494 355.922 31.6854 354.877 31.6854C353.71 31.6854 352.814 31.3354 352.189 30.6354C351.563 29.9354 351.251 28.9881 351.251 27.7934C351.251 27.0374 351.381 26.3608 351.643 25.7634C351.913 25.1568 352.301 24.6808 352.805 24.3354C353.318 23.9901 353.925 23.8174 354.625 23.8174C355.679 23.8174 356.501 24.1488 357.089 24.8114C357.677 25.4741 357.971 26.3981 357.971 27.5834ZM355.997 27.0234C355.997 25.7914 355.553 25.1754 354.667 25.1754C354.256 25.1754 353.934 25.3294 353.701 25.6374C353.477 25.9361 353.341 26.4261 353.295 27.1074H355.997V27.0234ZM363.554 23.8174C364.207 23.8174 364.716 24.0181 365.08 24.4194C365.444 24.8114 365.626 25.3574 365.626 26.0574V31.4614H363.638V26.3934C363.638 25.9921 363.568 25.7121 363.428 25.5534C363.297 25.3854 363.096 25.3014 362.826 25.3014C362.546 25.3014 362.289 25.3901 362.056 25.5674C361.832 25.7354 361.612 25.9921 361.398 26.3374V31.4614H359.41V24.0414H361.132L361.286 24.9794C361.594 24.5968 361.93 24.3074 362.294 24.1114C362.667 23.9154 363.087 23.8174 363.554 23.8174ZM371.955 31.1114C371.684 31.2981 371.376 31.4381 371.031 31.5314C370.695 31.6341 370.359 31.6854 370.023 31.6854C369.258 31.6761 368.679 31.4568 368.287 31.0274C367.895 30.5981 367.699 29.9681 367.699 29.1374V25.4414H366.593V24.0414H367.699V22.4174L369.687 22.1794V24.0414H371.395L371.199 25.4414H369.687V29.0954C369.687 29.4501 369.748 29.7068 369.869 29.8654C369.99 30.0241 370.177 30.1034 370.429 30.1034C370.681 30.1034 370.961 30.0194 371.269 29.8514L371.955 31.1114ZM378.875 27.5834C378.875 27.6768 378.861 27.9334 378.833 28.3534H374.199C374.264 29.0254 374.446 29.5014 374.745 29.7814C375.044 30.0614 375.45 30.2014 375.963 30.2014C376.28 30.2014 376.579 30.1501 376.859 30.0474C377.139 29.9448 377.442 29.7814 377.769 29.5574L378.595 30.6774C377.764 31.3494 376.826 31.6854 375.781 31.6854C374.614 31.6854 373.718 31.3354 373.093 30.6354C372.468 29.9354 372.155 28.9881 372.155 27.7934C372.155 27.0374 372.286 26.3608 372.547 25.7634C372.818 25.1568 373.205 24.6808 373.709 24.3354C374.222 23.9901 374.829 23.8174 375.529 23.8174C376.584 23.8174 377.405 24.1488 377.993 24.8114C378.581 25.4741 378.875 26.3981 378.875 27.5834ZM376.901 27.0234C376.901 25.7914 376.458 25.1754 375.571 25.1754C375.16 25.1754 374.838 25.3294 374.605 25.6374C374.381 25.9361 374.246 26.4261 374.199 27.1074H376.901V27.0234Z" fill="#FF554C"/>
<mask id="path-10-inside-4_1664_10506" fill="white">
<path d="M411 0.961426H523V52.9614H411V0.961426Z"/>
</mask>
<path d="M522 0.961426V52.9614H524V0.961426H522Z" fill="#000066" mask="url(#path-10-inside-4_1664_10506)"/>
<mask id="mask0_1664_10506" style="mask-type:alpha" maskUnits="userSpaceOnUse" x="457" y="16" width="20" height="21">
<rect x="457" y="16.9614" width="20" height="20" fill="#D9D9D9"/>
</mask>
<g mask="url(#mask0_1664_10506)">
<path d="M462.333 31.6281H463.283L469.8 25.1114L468.85 24.1614L462.333 30.6781V31.6281ZM461 32.9614V30.1281L469.8 21.3448C469.933 21.2225 470.081 21.1281 470.242 21.0614C470.403 20.9948 470.572 20.9614 470.75 20.9614C470.928 20.9614 471.1 20.9948 471.267 21.0614C471.433 21.1281 471.578 21.2281 471.7 21.3614L472.617 22.2948C472.75 22.417 472.847 22.5614 472.908 22.7281C472.969 22.8948 473 23.0614 473 23.2281C473 23.4059 472.969 23.5753 472.908 23.7364C472.847 23.8975 472.75 24.0448 472.617 24.1781L463.833 32.9614H461ZM469.317 24.6448L468.85 24.1614L469.8 25.1114L469.317 24.6448Z" fill="#000066"/>
</g>
<mask id="path-14-inside-5_1664_10506" fill="white">
<path d="M523 0.961426H779V52.9614H523V0.961426Z"/>
</mask>
<path d="M523 0.961426H779V52.9614H523V0.961426Z" fill="#E4E1EC"/>
<path d="M779 52.9614V53.9614H780V52.9614H779ZM778 0.961426V52.9614H780V0.961426H778ZM779 51.9614H523V53.9614H779V51.9614Z" fill="#000066" mask="url(#path-14-inside-5_1664_10506)"/>
<path d="M541.146 29.9614L540.6 27.7914H537.562L537.016 29.9614H534.874L537.856 20.2734H540.362L543.33 29.9614H541.146ZM537.954 26.2654H540.208L539.074 21.7994L537.954 26.2654ZM546.031 30.1854C545.424 30.1854 544.953 30.0128 544.617 29.6674C544.281 29.3128 544.113 28.8134 544.113 28.1694V19.5874L546.101 19.3634V28.1134C546.101 28.4401 546.236 28.6034 546.507 28.6034C546.656 28.6034 546.787 28.5754 546.899 28.5194L547.305 29.9334C546.922 30.1014 546.498 30.1854 546.031 30.1854ZM554.529 26.0834C554.529 26.1768 554.515 26.4334 554.487 26.8534H549.853C549.919 27.5254 550.101 28.0014 550.399 28.2814C550.698 28.5614 551.104 28.7014 551.617 28.7014C551.935 28.7014 552.233 28.6501 552.513 28.5474C552.793 28.4448 553.097 28.2814 553.423 28.0574L554.249 29.1774C553.419 29.8494 552.481 30.1854 551.435 30.1854C550.269 30.1854 549.373 29.8354 548.747 29.1354C548.122 28.4354 547.809 27.4881 547.809 26.2934C547.809 25.5374 547.94 24.8608 548.201 24.2634C548.472 23.6568 548.859 23.1808 549.363 22.8354C549.877 22.4901 550.483 22.3174 551.183 22.3174C552.238 22.3174 553.059 22.6488 553.647 23.3114C554.235 23.9741 554.529 24.8981 554.529 26.0834ZM552.555 25.5234C552.555 24.2914 552.112 23.6754 551.225 23.6754C550.815 23.6754 550.493 23.8294 550.259 24.1374C550.035 24.4361 549.9 24.9261 549.853 25.6074H552.555V25.5234ZM557.942 29.2194C557.942 29.9661 557.826 30.5774 557.592 31.0534C557.368 31.5388 557.056 31.9261 556.654 32.2154C556.253 32.5141 555.74 32.7848 555.114 33.0274L554.456 31.5854C554.82 31.4174 555.105 31.2494 555.31 31.0814C555.516 30.9228 555.674 30.7034 555.786 30.4234C555.898 30.1528 555.954 29.7934 555.954 29.3454V22.5414H557.942V29.2194ZM556.934 18.7194C557.289 18.7194 557.578 18.8314 557.802 19.0554C558.036 19.2701 558.152 19.5454 558.152 19.8814C558.152 20.2174 558.036 20.4974 557.802 20.7214C557.578 20.9361 557.289 21.0434 556.934 21.0434C556.58 21.0434 556.29 20.9361 556.066 20.7214C555.842 20.4974 555.73 20.2174 555.73 19.8814C555.73 19.5454 555.842 19.2701 556.066 19.0554C556.29 18.8314 556.58 18.7194 556.934 18.7194ZM565.576 27.9034C565.576 28.1928 565.618 28.4074 565.702 28.5474C565.786 28.6781 565.926 28.7761 566.122 28.8414L565.702 30.1574C565.263 30.1201 564.904 30.0174 564.624 29.8494C564.353 29.6814 564.143 29.4201 563.994 29.0654C563.508 29.8121 562.766 30.1854 561.768 30.1854C561.03 30.1854 560.442 29.9754 560.004 29.5554C559.574 29.1261 559.36 28.5708 559.36 27.8894C559.36 27.0774 559.654 26.4568 560.242 26.0274C560.83 25.5981 561.674 25.3834 562.776 25.3834H563.63V25.0194C563.63 24.5621 563.527 24.2448 563.322 24.0674C563.116 23.8901 562.776 23.8014 562.3 23.8014C561.777 23.8014 561.124 23.9321 560.34 24.1934L559.892 22.8634C560.816 22.4994 561.73 22.3174 562.636 22.3174C563.644 22.3174 564.386 22.5368 564.862 22.9754C565.338 23.4048 565.576 24.0488 565.576 24.9074V27.9034ZM562.314 28.7574C562.874 28.7574 563.312 28.4821 563.63 27.9314V26.5174H562.972C561.898 26.5174 561.362 26.9188 561.362 27.7214C561.362 28.0481 561.441 28.3048 561.6 28.4914C561.768 28.6688 562.006 28.7574 562.314 28.7574ZM571.706 22.3174C572.359 22.3174 572.868 22.5181 573.232 22.9194C573.596 23.3114 573.778 23.8574 573.778 24.5574V29.9614H571.79V24.8934C571.79 24.4921 571.72 24.2121 571.58 24.0534C571.449 23.8854 571.249 23.8014 570.978 23.8014C570.698 23.8014 570.441 23.8901 570.208 24.0674C569.984 24.2354 569.765 24.4921 569.55 24.8374V29.9614H567.562V22.5414H569.284L569.438 23.4794C569.746 23.0968 570.082 22.8074 570.446 22.6114C570.819 22.4154 571.239 22.3174 571.706 22.3174ZM582.095 19.5874V29.9614H580.345L580.233 29.0514C579.711 29.8074 579.001 30.1854 578.105 30.1854C577.191 30.1854 576.491 29.8354 576.005 29.1354C575.529 28.4261 575.291 27.4648 575.291 26.2514C575.291 25.4861 575.413 24.8094 575.655 24.2214C575.907 23.6241 576.262 23.1574 576.719 22.8214C577.177 22.4854 577.704 22.3174 578.301 22.3174C578.992 22.3174 579.594 22.5648 580.107 23.0594V19.3634L582.095 19.5874ZM578.693 28.7014C578.983 28.7014 579.239 28.6314 579.463 28.4914C579.687 28.3421 579.902 28.1134 580.107 27.8054V24.4874C579.911 24.2541 579.711 24.0814 579.505 23.9694C579.309 23.8481 579.081 23.7874 578.819 23.7874C578.362 23.7874 578.003 23.9881 577.741 24.3894C577.489 24.7908 577.363 25.4114 577.363 26.2514C577.363 27.1381 577.475 27.7681 577.699 28.1414C577.933 28.5148 578.264 28.7014 578.693 28.7014ZM587.886 22.3314C588.11 22.3314 588.358 22.3688 588.628 22.4434L588.292 24.3614C588.031 24.2961 587.812 24.2634 587.634 24.2634C587.196 24.2634 586.855 24.4174 586.612 24.7254C586.37 25.0334 586.178 25.5001 586.038 26.1254V29.9614H584.05V22.5414H585.772L585.954 23.9834C586.132 23.4608 586.388 23.0548 586.724 22.7654C587.07 22.4761 587.457 22.3314 587.886 22.3314ZM592.313 22.3174C593.424 22.3174 594.292 22.6674 594.917 23.3674C595.542 24.0581 595.855 25.0194 595.855 26.2514C595.855 27.0354 595.71 27.7261 595.421 28.3234C595.141 28.9114 594.73 29.3688 594.189 29.6954C593.657 30.0221 593.027 30.1854 592.299 30.1854C591.188 30.1854 590.316 29.8401 589.681 29.1494C589.056 28.4494 588.743 27.4834 588.743 26.2514C588.743 25.4674 588.883 24.7814 589.163 24.1934C589.452 23.5961 589.863 23.1341 590.395 22.8074C590.936 22.4808 591.576 22.3174 592.313 22.3174ZM592.313 23.8014C591.809 23.8014 591.431 24.0021 591.179 24.4034C590.936 24.7954 590.815 25.4114 590.815 26.2514C590.815 27.0914 590.936 27.7121 591.179 28.1134C591.431 28.5054 591.804 28.7014 592.299 28.7014C592.794 28.7014 593.162 28.5054 593.405 28.1134C593.657 27.7121 593.783 27.0914 593.783 26.2514C593.783 25.4114 593.662 24.7954 593.419 24.4034C593.176 24.0021 592.808 23.8014 592.313 23.8014ZM607.253 20.2734L607.029 21.8834H604.579V29.9614H602.521V21.8834H599.945V20.2734H607.253ZM610.62 22.3174C611.73 22.3174 612.598 22.6674 613.224 23.3674C613.849 24.0581 614.162 25.0194 614.162 26.2514C614.162 27.0354 614.017 27.7261 613.728 28.3234C613.448 28.9114 613.037 29.3688 612.496 29.6954C611.964 30.0221 611.334 30.1854 610.606 30.1854C609.495 30.1854 608.622 29.8401 607.988 29.1494C607.362 28.4494 607.05 27.4834 607.05 26.2514C607.05 25.4674 607.19 24.7814 607.47 24.1934C607.759 23.5961 608.17 23.1341 608.702 22.8074C609.243 22.4808 609.882 22.3174 610.62 22.3174ZM610.62 23.8014C610.116 23.8014 609.738 24.0021 609.486 24.4034C609.243 24.7954 609.122 25.4114 609.122 26.2514C609.122 27.0914 609.243 27.7121 609.486 28.1134C609.738 28.5054 610.111 28.7014 610.606 28.7014C611.1 28.7014 611.469 28.5054 611.712 28.1134C611.964 27.7121 612.09 27.0914 612.09 26.2514C612.09 25.4114 611.968 24.7954 611.726 24.4034C611.483 24.0021 611.114 23.8014 610.62 23.8014ZM617.521 30.1854C616.915 30.1854 616.443 30.0128 616.107 29.6674C615.771 29.3128 615.603 28.8134 615.603 28.1694V19.5874L617.591 19.3634V28.1134C617.591 28.4401 617.727 28.6034 617.997 28.6034C618.147 28.6034 618.277 28.5754 618.389 28.5194L618.795 29.9334C618.413 30.1014 617.988 30.1854 617.521 30.1854ZM626.02 26.0834C626.02 26.1768 626.006 26.4334 625.978 26.8534H621.344C621.409 27.5254 621.591 28.0014 621.89 28.2814C622.188 28.5614 622.594 28.7014 623.108 28.7014C623.425 28.7014 623.724 28.6501 624.004 28.5474C624.284 28.4448 624.587 28.2814 624.914 28.0574L625.74 29.1774C624.909 29.8494 623.971 30.1854 622.926 30.1854C621.759 30.1854 620.863 29.8354 620.238 29.1354C619.612 28.4354 619.3 27.4881 619.3 26.2934C619.3 25.5374 619.43 24.8608 619.692 24.2634C619.962 23.6568 620.35 23.1808 620.854 22.8354C621.367 22.4901 621.974 22.3174 622.674 22.3174C623.728 22.3174 624.55 22.6488 625.138 23.3114C625.726 23.9741 626.02 24.8981 626.02 26.0834ZM624.046 25.5234C624.046 24.2914 623.602 23.6754 622.716 23.6754C622.305 23.6754 621.983 23.8294 621.75 24.1374C621.526 24.4361 621.39 24.9261 621.344 25.6074H624.046V25.5234ZM633.885 19.5874V29.9614H632.135L632.023 29.0514C631.5 29.8074 630.791 30.1854 629.895 30.1854C628.98 30.1854 628.28 29.8354 627.795 29.1354C627.319 28.4261 627.081 27.4648 627.081 26.2514C627.081 25.4861 627.202 24.8094 627.445 24.2214C627.697 23.6241 628.051 23.1574 628.509 22.8214C628.966 22.4854 629.493 22.3174 630.091 22.3174C630.781 22.3174 631.383 22.5648 631.897 23.0594V19.3634L633.885 19.5874ZM630.483 28.7014C630.772 28.7014 631.029 28.6314 631.253 28.4914C631.477 28.3421 631.691 28.1134 631.897 27.8054V24.4874C631.701 24.2541 631.5 24.0814 631.295 23.9694C631.099 23.8481 630.87 23.7874 630.609 23.7874C630.151 23.7874 629.792 23.9881 629.531 24.3894C629.279 24.7908 629.153 25.4114 629.153 26.2514C629.153 27.1381 629.265 27.7681 629.489 28.1414C629.722 28.5148 630.053 28.7014 630.483 28.7014ZM638.961 22.3174C640.072 22.3174 640.94 22.6674 641.565 23.3674C642.191 24.0581 642.503 25.0194 642.503 26.2514C642.503 27.0354 642.359 27.7261 642.069 28.3234C641.789 28.9114 641.379 29.3688 640.837 29.6954C640.305 30.0221 639.675 30.1854 638.947 30.1854C637.837 30.1854 636.964 29.8401 636.329 29.1494C635.704 28.4494 635.391 27.4834 635.391 26.2514C635.391 25.4674 635.531 24.7814 635.811 24.1934C636.101 23.5961 636.511 23.1341 637.043 22.8074C637.585 22.4808 638.224 22.3174 638.961 22.3174ZM638.961 23.8014C638.457 23.8014 638.079 24.0021 637.827 24.4034C637.585 24.7954 637.463 25.4114 637.463 26.2514C637.463 27.0914 637.585 27.7121 637.827 28.1134C638.079 28.5054 638.453 28.7014 638.947 28.7014C639.442 28.7014 639.811 28.5054 640.053 28.1134C640.305 27.7121 640.431 27.0914 640.431 26.2514C640.431 25.4114 640.31 24.7954 640.067 24.4034C639.825 24.0021 639.456 23.8014 638.961 23.8014ZM653.901 20.2734L653.677 21.8834H651.227V29.9614H649.169V21.8834H646.593V20.2734H653.901ZM657.268 22.3174C658.379 22.3174 659.247 22.6674 659.872 23.3674C660.497 24.0581 660.81 25.0194 660.81 26.2514C660.81 27.0354 660.665 27.7261 660.376 28.3234C660.096 28.9114 659.685 29.3688 659.144 29.6954C658.612 30.0221 657.982 30.1854 657.254 30.1854C656.143 30.1854 655.271 29.8401 654.636 29.1494C654.011 28.4494 653.698 27.4834 653.698 26.2514C653.698 25.4674 653.838 24.7814 654.118 24.1934C654.407 23.5961 654.818 23.1341 655.35 22.8074C655.891 22.4808 656.531 22.3174 657.268 22.3174ZM657.268 23.8014C656.764 23.8014 656.386 24.0021 656.134 24.4034C655.891 24.7954 655.77 25.4114 655.77 26.2514C655.77 27.0914 655.891 27.7121 656.134 28.1134C656.386 28.5054 656.759 28.7014 657.254 28.7014C657.749 28.7014 658.117 28.5054 658.36 28.1134C658.612 27.7121 658.738 27.0914 658.738 26.2514C658.738 25.4114 658.617 24.7954 658.374 24.4034C658.131 24.0021 657.763 23.8014 657.268 23.8014ZM668.386 22.5414L666.006 29.9614H663.64L661.218 22.5414H663.374L664.844 28.4074L666.342 22.5414H668.386ZM674.732 27.9034C674.732 28.1928 674.774 28.4074 674.858 28.5474C674.942 28.6781 675.082 28.7761 675.278 28.8414L674.858 30.1574C674.419 30.1201 674.06 30.0174 673.78 29.8494C673.509 29.6814 673.299 29.4201 673.15 29.0654C672.665 29.8121 671.923 30.1854 670.924 30.1854C670.187 30.1854 669.599 29.9754 669.16 29.5554C668.731 29.1261 668.516 28.5708 668.516 27.8894C668.516 27.0774 668.81 26.4568 669.398 26.0274C669.986 25.5981 670.831 25.3834 671.932 25.3834H672.786V25.0194C672.786 24.5621 672.683 24.2448 672.478 24.0674C672.273 23.8901 671.932 23.8014 671.456 23.8014C670.933 23.8014 670.28 23.9321 669.496 24.1934L669.048 22.8634C669.972 22.4994 670.887 22.3174 671.792 22.3174C672.8 22.3174 673.542 22.5368 674.018 22.9754C674.494 23.4048 674.732 24.0488 674.732 24.9074V27.9034ZM671.47 28.7574C672.03 28.7574 672.469 28.4821 672.786 27.9314V26.5174H672.128C671.055 26.5174 670.518 26.9188 670.518 27.7214C670.518 28.0481 670.597 28.3048 670.756 28.4914C670.924 28.6688 671.162 28.7574 671.47 28.7574ZM680.554 22.3314C680.778 22.3314 681.026 22.3688 681.296 22.4434L680.96 24.3614C680.699 24.2961 680.48 24.2634 680.302 24.2634C679.864 24.2634 679.523 24.4174 679.28 24.7254C679.038 25.0334 678.846 25.5001 678.706 26.1254V29.9614H676.718V22.5414H678.44L678.622 23.9834C678.8 23.4608 679.056 23.0548 679.392 22.7654C679.738 22.4761 680.125 22.3314 680.554 22.3314Z" fill="#000066"/>
<mask id="path-17-inside-6_1664_10506" fill="white">
<path d="M779 0.961426H1035V52.9614H779V0.961426Z"/>
</mask>
<path d="M779 0.961426H1035V52.9614H779V0.961426Z" fill="#E4E1EC"/>
<path d="M1035 52.9614V53.9614H1036V52.9614H1035ZM1034 0.961426V52.9614H1036V0.961426H1034ZM1035 51.9614H779V53.9614H1035V51.9614Z" fill="#000066" mask="url(#path-17-inside-6_1664_10506)"/>
<path d="M794.43 28.5194C794.43 29.2661 794.299 29.8821 794.038 30.3674C793.786 30.8528 793.445 31.2308 793.016 31.5014C792.587 31.7814 792.064 32.0241 791.448 32.2294L790.902 30.7594C791.313 30.6008 791.621 30.4188 791.826 30.2134C792.041 30.0081 792.185 29.7701 792.26 29.4994C792.335 29.2288 792.372 28.8788 792.372 28.4494V20.2734H794.43V28.5194ZM802.654 26.0834C802.654 26.1768 802.64 26.4334 802.612 26.8534H797.978C798.044 27.5254 798.226 28.0014 798.524 28.2814C798.823 28.5614 799.229 28.7014 799.742 28.7014C800.06 28.7014 800.358 28.6501 800.638 28.5474C800.918 28.4448 801.222 28.2814 801.548 28.0574L802.374 29.1774C801.544 29.8494 800.606 30.1854 799.56 30.1854C798.394 30.1854 797.498 29.8354 796.872 29.1354C796.247 28.4354 795.934 27.4881 795.934 26.2934C795.934 25.5374 796.065 24.8608 796.326 24.2634C796.597 23.6568 796.984 23.1808 797.488 22.8354C798.002 22.4901 798.608 22.3174 799.308 22.3174C800.363 22.3174 801.184 22.6488 801.772 23.3114C802.36 23.9741 802.654 24.8981 802.654 26.0834ZM800.68 25.5234C800.68 24.2914 800.237 23.6754 799.35 23.6754C798.94 23.6754 798.618 23.8294 798.384 24.1374C798.16 24.4361 798.025 24.9261 797.978 25.6074H800.68V25.5234ZM807.271 20.8474C806.935 20.8474 806.693 20.9268 806.543 21.0854C806.403 21.2441 806.333 21.5008 806.333 21.8554V22.5414H808.097L807.873 23.9414H806.333V29.9614H804.345V23.9414H803.169V22.5414H804.345V21.7994C804.345 21.0808 804.579 20.4974 805.045 20.0494C805.521 19.5921 806.193 19.3634 807.061 19.3634C807.752 19.3634 808.405 19.5128 809.021 19.8114L808.475 21.1274C808.074 20.9408 807.673 20.8474 807.271 20.8474ZM815.137 26.0834C815.137 26.1768 815.123 26.4334 815.095 26.8534H810.461C810.526 27.5254 810.708 28.0014 811.007 28.2814C811.305 28.5614 811.711 28.7014 812.225 28.7014C812.542 28.7014 812.841 28.6501 813.121 28.5474C813.401 28.4448 813.704 28.2814 814.031 28.0574L814.857 29.1774C814.026 29.8494 813.088 30.1854 812.043 30.1854C810.876 30.1854 809.98 29.8354 809.355 29.1354C808.729 28.4354 808.417 27.4881 808.417 26.2934C808.417 25.5374 808.547 24.8608 808.809 24.2634C809.079 23.6568 809.467 23.1808 809.971 22.8354C810.484 22.4901 811.091 22.3174 811.791 22.3174C812.845 22.3174 813.667 22.6488 814.255 23.3114C814.843 23.9741 815.137 24.8981 815.137 26.0834ZM813.163 25.5234C813.163 24.2914 812.719 23.6754 811.833 23.6754C811.422 23.6754 811.1 23.8294 810.867 24.1374C810.643 24.4361 810.507 24.9261 810.461 25.6074H813.163V25.5234ZM826.42 19.5874V29.9614H824.67L824.558 29.0514C824.035 29.8074 823.326 30.1854 822.43 30.1854C821.515 30.1854 820.815 29.8354 820.33 29.1354C819.854 28.4261 819.616 27.4648 819.616 26.2514C819.616 25.4861 819.737 24.8094 819.98 24.2214C820.232 23.6241 820.586 23.1574 821.044 22.8214C821.501 22.4854 822.028 22.3174 822.626 22.3174C823.316 22.3174 823.918 22.5648 824.432 23.0594V19.3634L826.42 19.5874ZM823.018 28.7014C823.307 28.7014 823.564 28.6314 823.788 28.4914C824.012 28.3421 824.226 28.1134 824.432 27.8054V24.4874C824.236 24.2541 824.035 24.0814 823.83 23.9694C823.634 23.8481 823.405 23.7874 823.144 23.7874C822.686 23.7874 822.327 23.9881 822.066 24.3894C821.814 24.7908 821.688 25.4114 821.688 26.2514C821.688 27.1381 821.8 27.7681 822.024 28.1414C822.257 28.5148 822.588 28.7014 823.018 28.7014ZM834.647 26.0834C834.647 26.1768 834.633 26.4334 834.605 26.8534H829.971C830.036 27.5254 830.218 28.0014 830.517 28.2814C830.815 28.5614 831.221 28.7014 831.735 28.7014C832.052 28.7014 832.351 28.6501 832.631 28.5474C832.911 28.4448 833.214 28.2814 833.541 28.0574L834.367 29.1774C833.536 29.8494 832.598 30.1854 831.553 30.1854C830.386 30.1854 829.49 29.8354 828.865 29.1354C828.239 28.4354 827.927 27.4881 827.927 26.2934C827.927 25.5374 828.057 24.8608 828.319 24.2634C828.589 23.6568 828.977 23.1808 829.481 22.8354C829.994 22.4901 830.601 22.3174 831.301 22.3174C832.355 22.3174 833.177 22.6488 833.765 23.3114C834.353 23.9741 834.647 24.8981 834.647 26.0834ZM832.673 25.5234C832.673 24.2914 832.229 23.6754 831.343 23.6754C830.932 23.6754 830.61 23.8294 830.377 24.1374C830.153 24.4361 830.017 24.9261 829.971 25.6074H832.673V25.5234ZM842.079 20.2734C843.591 20.2734 844.8 20.6188 845.705 21.3094C846.62 21.9908 847.077 23.2461 847.077 25.0754C847.077 26.8674 846.629 28.1321 845.733 28.8694C844.847 29.5974 843.708 29.9614 842.317 29.9614H839.545V20.2734H842.079ZM841.603 21.7854V28.4494H842.443C843.237 28.4494 843.848 28.2068 844.277 27.7214C844.716 27.2268 844.935 26.3448 844.935 25.0754C844.935 24.1981 844.823 23.5168 844.599 23.0314C844.385 22.5461 844.095 22.2194 843.731 22.0514C843.367 21.8741 842.924 21.7854 842.401 21.7854H841.603ZM854.881 26.0834C854.881 26.1768 854.867 26.4334 854.839 26.8534H850.205C850.27 27.5254 850.452 28.0014 850.751 28.2814C851.05 28.5614 851.456 28.7014 851.969 28.7014C852.286 28.7014 852.585 28.6501 852.865 28.5474C853.145 28.4448 853.448 28.2814 853.775 28.0574L854.601 29.1774C853.77 29.8494 852.832 30.1854 851.787 30.1854C850.62 30.1854 849.724 29.8354 849.099 29.1354C848.474 28.4354 848.161 27.4881 848.161 26.2934C848.161 25.5374 848.292 24.8608 848.553 24.2634C848.824 23.6568 849.211 23.1808 849.715 22.8354C850.228 22.4901 850.835 22.3174 851.535 22.3174C852.59 22.3174 853.411 22.6488 853.999 23.3114C854.587 23.9741 854.881 24.8981 854.881 26.0834ZM852.907 25.5234C852.907 24.2914 852.464 23.6754 851.577 23.6754C851.166 23.6754 850.844 23.8294 850.611 24.1374C850.387 24.4361 850.252 24.9261 850.205 25.6074H852.907V25.5234ZM860.324 22.3174C861.257 22.3174 861.948 22.6628 862.396 23.3534C862.853 24.0348 863.082 24.9961 863.082 26.2374C863.082 26.9934 862.965 27.6701 862.732 28.2674C862.499 28.8648 862.158 29.3361 861.71 29.6814C861.271 30.0174 860.749 30.1854 860.142 30.1854C859.386 30.1854 858.775 29.9194 858.308 29.3874V32.8174L856.32 33.0414V22.5414H858.07L858.168 23.4094C858.448 23.0454 858.775 22.7748 859.148 22.5974C859.531 22.4108 859.923 22.3174 860.324 22.3174ZM859.554 28.7014C860.525 28.7014 861.01 27.8848 861.01 26.2514C861.01 25.3554 860.903 24.7208 860.688 24.3474C860.473 23.9741 860.147 23.7874 859.708 23.7874C859.428 23.7874 859.167 23.8761 858.924 24.0534C858.691 24.2214 858.485 24.4501 858.308 24.7394V27.9734C858.625 28.4588 859.041 28.7014 859.554 28.7014ZM870.193 27.9034C870.193 28.1928 870.235 28.4074 870.319 28.5474C870.403 28.6781 870.543 28.7761 870.739 28.8414L870.319 30.1574C869.88 30.1201 869.521 30.0174 869.241 29.8494C868.97 29.6814 868.76 29.4201 868.611 29.0654C868.126 29.8121 867.384 30.1854 866.385 30.1854C865.648 30.1854 865.06 29.9754 864.621 29.5554C864.192 29.1261 863.977 28.5708 863.977 27.8894C863.977 27.0774 864.271 26.4568 864.859 26.0274C865.447 25.5981 866.292 25.3834 867.393 25.3834H868.247V25.0194C868.247 24.5621 868.144 24.2448 867.939 24.0674C867.734 23.8901 867.393 23.8014 866.917 23.8014C866.394 23.8014 865.741 23.9321 864.957 24.1934L864.509 22.8634C865.433 22.4994 866.348 22.3174 867.253 22.3174C868.261 22.3174 869.003 22.5368 869.479 22.9754C869.955 23.4048 870.193 24.0488 870.193 24.9074V27.9034ZM866.931 28.7574C867.491 28.7574 867.93 28.4821 868.247 27.9314V26.5174H867.589C866.516 26.5174 865.979 26.9188 865.979 27.7214C865.979 28.0481 866.058 28.3048 866.217 28.4914C866.385 28.6688 866.623 28.7574 866.931 28.7574ZM876.015 22.3314C876.239 22.3314 876.487 22.3688 876.757 22.4434L876.421 24.3614C876.16 24.2961 875.941 24.2634 875.763 24.2634C875.325 24.2634 874.984 24.4174 874.741 24.7254C874.499 25.0334 874.307 25.5001 874.167 26.1254V29.9614H872.179V22.5414H873.901L874.083 23.9834C874.261 23.4608 874.517 23.0548 874.853 22.7654C875.199 22.4761 875.586 22.3314 876.015 22.3314ZM882.182 29.6114C881.911 29.7981 881.603 29.9381 881.258 30.0314C880.922 30.1341 880.586 30.1854 880.25 30.1854C879.484 30.1761 878.906 29.9568 878.514 29.5274C878.122 29.0981 877.926 28.4681 877.926 27.6374V23.9414H876.82V22.5414H877.926V20.9174L879.914 20.6794V22.5414H881.622L881.426 23.9414H879.914V27.5954C879.914 27.9501 879.974 28.2068 880.096 28.3654C880.217 28.5241 880.404 28.6034 880.656 28.6034C880.908 28.6034 881.188 28.5194 881.496 28.3514L882.182 29.6114ZM888.582 27.9034C888.582 28.1928 888.624 28.4074 888.708 28.5474C888.792 28.6781 888.932 28.7761 889.128 28.8414L888.708 30.1574C888.269 30.1201 887.91 30.0174 887.63 29.8494C887.359 29.6814 887.149 29.4201 887 29.0654C886.514 29.8121 885.772 30.1854 884.774 30.1854C884.036 30.1854 883.448 29.9754 883.01 29.5554C882.58 29.1261 882.366 28.5708 882.366 27.8894C882.366 27.0774 882.66 26.4568 883.248 26.0274C883.836 25.5981 884.68 25.3834 885.782 25.3834H886.636V25.0194C886.636 24.5621 886.533 24.2448 886.328 24.0674C886.122 23.8901 885.782 23.8014 885.306 23.8014C884.783 23.8014 884.13 23.9321 883.346 24.1934L882.898 22.8634C883.822 22.4994 884.736 22.3174 885.642 22.3174C886.65 22.3174 887.392 22.5368 887.868 22.9754C888.344 23.4048 888.582 24.0488 888.582 24.9074V27.9034ZM885.32 28.7574C885.88 28.7574 886.318 28.4821 886.636 27.9314V26.5174H885.978C884.904 26.5174 884.368 26.9188 884.368 27.7214C884.368 28.0481 884.447 28.3048 884.606 28.4914C884.774 28.6688 885.012 28.7574 885.32 28.7574ZM898.59 22.3174C899.178 22.3174 899.649 22.5181 900.004 22.9194C900.368 23.3208 900.55 23.8668 900.55 24.5574V29.9614H898.562V24.8934C898.562 24.1654 898.319 23.8014 897.834 23.8014C897.573 23.8014 897.344 23.8854 897.148 24.0534C896.952 24.2214 896.751 24.4828 896.546 24.8374V29.9614H894.558V24.8934C894.558 24.1654 894.315 23.8014 893.83 23.8014C893.569 23.8014 893.34 23.8901 893.144 24.0674C892.948 24.2354 892.752 24.4921 892.556 24.8374V29.9614H890.568V22.5414H892.29L892.444 23.4654C892.724 23.0921 893.037 22.8074 893.382 22.6114C893.737 22.4154 894.143 22.3174 894.6 22.3174C895.02 22.3174 895.384 22.4248 895.692 22.6394C896 22.8448 896.224 23.1388 896.364 23.5214C896.672 23.1201 897.003 22.8214 897.358 22.6254C897.722 22.4201 898.133 22.3174 898.59 22.3174ZM908.707 26.0834C908.707 26.1768 908.693 26.4334 908.665 26.8534H904.031C904.096 27.5254 904.278 28.0014 904.577 28.2814C904.876 28.5614 905.282 28.7014 905.795 28.7014C906.112 28.7014 906.411 28.6501 906.691 28.5474C906.971 28.4448 907.274 28.2814 907.601 28.0574L908.427 29.1774C907.596 29.8494 906.658 30.1854 905.613 30.1854C904.446 30.1854 903.55 29.8354 902.925 29.1354C902.3 28.4354 901.987 27.4881 901.987 26.2934C901.987 25.5374 902.118 24.8608 902.379 24.2634C902.65 23.6568 903.037 23.1808 903.541 22.8354C904.054 22.4901 904.661 22.3174 905.361 22.3174C906.416 22.3174 907.237 22.6488 907.825 23.3114C908.413 23.9741 908.707 24.8981 908.707 26.0834ZM906.733 25.5234C906.733 24.2914 906.29 23.6754 905.403 23.6754C904.992 23.6754 904.67 23.8294 904.437 24.1374C904.213 24.4361 904.078 24.9261 904.031 25.6074H906.733V25.5234ZM914.29 22.3174C914.943 22.3174 915.452 22.5181 915.816 22.9194C916.18 23.3114 916.362 23.8574 916.362 24.5574V29.9614H914.374V24.8934C914.374 24.4921 914.304 24.2121 914.164 24.0534C914.033 23.8854 913.833 23.8014 913.562 23.8014C913.282 23.8014 913.025 23.8901 912.792 24.0674C912.568 24.2354 912.349 24.4921 912.134 24.8374V29.9614H910.146V22.5414H911.868L912.022 23.4794C912.33 23.0968 912.666 22.8074 913.03 22.6114C913.403 22.4154 913.823 22.3174 914.29 22.3174ZM922.691 29.6114C922.421 29.7981 922.113 29.9381 921.767 30.0314C921.431 30.1341 921.095 30.1854 920.759 30.1854C919.994 30.1761 919.415 29.9568 919.023 29.5274C918.631 29.0981 918.435 28.4681 918.435 27.6374V23.9414H917.329V22.5414H918.435V20.9174L920.423 20.6794V22.5414H922.131L921.935 23.9414H920.423V27.5954C920.423 27.9501 920.484 28.2068 920.605 28.3654C920.727 28.5241 920.913 28.6034 921.165 28.6034C921.417 28.6034 921.697 28.5194 922.005 28.3514L922.691 29.6114ZM926.461 22.3174C927.572 22.3174 928.44 22.6674 929.065 23.3674C929.691 24.0581 930.003 25.0194 930.003 26.2514C930.003 27.0354 929.859 27.7261 929.569 28.3234C929.289 28.9114 928.879 29.3688 928.337 29.6954C927.805 30.0221 927.175 30.1854 926.447 30.1854C925.337 30.1854 924.464 29.8401 923.829 29.1494C923.204 28.4494 922.891 27.4834 922.891 26.2514C922.891 25.4674 923.031 24.7814 923.311 24.1934C923.601 23.5961 924.011 23.1341 924.543 22.8074C925.085 22.4808 925.724 22.3174 926.461 22.3174ZM926.461 23.8014C925.957 23.8014 925.579 24.0021 925.327 24.4034C925.085 24.7954 924.963 25.4114 924.963 26.2514C924.963 27.0914 925.085 27.7121 925.327 28.1134C925.579 28.5054 925.953 28.7014 926.447 28.7014C926.942 28.7014 927.311 28.5054 927.553 28.1134C927.805 27.7121 927.931 27.0914 927.931 26.2514C927.931 25.4114 927.81 24.7954 927.567 24.4034C927.325 24.0021 926.956 23.8014 926.461 23.8014Z" fill="#000066"/>
<mask id="path-20-inside-7_1664_10506" fill="white">
<path d="M1035 0.961426H1163V52.9614H1035V0.961426Z"/>
</mask>
<path d="M1035 0.961426H1163V52.9614H1035V0.961426Z" fill="#E4E1EC"/>
<path d="M1163 52.9614V53.9614H1164V52.9614H1163ZM1162 0.961426V52.9614H1164V0.961426H1162ZM1163 51.9614H1035V53.9614H1163V51.9614Z" fill="#000066" mask="url(#path-20-inside-7_1664_10506)"/>
<path d="M1070.68 21.7734C1071.94 21.7734 1072.92 22.0348 1073.61 22.5574C1074.31 23.0801 1074.66 23.8594 1074.66 24.8954C1074.66 25.9781 1074.31 26.7948 1073.62 27.3454C1072.93 27.8868 1072.01 28.1574 1070.85 28.1574H1069.75V31.4614H1067.69V21.7734H1070.68ZM1070.68 26.6454C1071.28 26.6454 1071.74 26.5101 1072.06 26.2394C1072.37 25.9688 1072.53 25.5208 1072.53 24.8954C1072.53 23.8034 1071.91 23.2574 1070.66 23.2574H1069.75V26.6454H1070.68ZM1081.82 27.5834C1081.82 27.6768 1081.81 27.9334 1081.78 28.3534H1077.14C1077.21 29.0254 1077.39 29.5014 1077.69 29.7814C1077.99 30.0614 1078.4 30.2014 1078.91 30.2014C1079.23 30.2014 1079.52 30.1501 1079.8 30.0474C1080.08 29.9448 1080.39 29.7814 1080.71 29.5574L1081.54 30.6774C1080.71 31.3494 1079.77 31.6854 1078.73 31.6854C1077.56 31.6854 1076.66 31.3354 1076.04 30.6354C1075.41 29.9354 1075.1 28.9881 1075.1 27.7934C1075.1 27.0374 1075.23 26.3608 1075.49 25.7634C1075.76 25.1568 1076.15 24.6808 1076.65 24.3354C1077.17 23.9901 1077.77 23.8174 1078.47 23.8174C1079.53 23.8174 1080.35 24.1488 1080.94 24.8114C1081.53 25.4741 1081.82 26.3981 1081.82 27.5834ZM1079.85 27.0234C1079.85 25.7914 1079.4 25.1754 1078.52 25.1754C1078.11 25.1754 1077.78 25.3294 1077.55 25.6374C1077.33 25.9361 1077.19 26.4261 1077.14 27.1074H1079.85V27.0234ZM1087.4 23.8174C1088.06 23.8174 1088.57 24.0181 1088.93 24.4194C1089.29 24.8114 1089.48 25.3574 1089.48 26.0574V31.4614H1087.49V26.3934C1087.49 25.9921 1087.42 25.7121 1087.28 25.5534C1087.15 25.3854 1086.95 25.3014 1086.68 25.3014C1086.4 25.3014 1086.14 25.3901 1085.91 25.5674C1085.68 25.7354 1085.46 25.9921 1085.25 26.3374V31.4614H1083.26V24.0414H1084.98L1085.14 24.9794C1085.44 24.5968 1085.78 24.3074 1086.14 24.1114C1086.52 23.9154 1086.94 23.8174 1087.4 23.8174ZM1097.79 21.0874V31.4614H1096.04L1095.93 30.5514C1095.41 31.3074 1094.7 31.6854 1093.8 31.6854C1092.89 31.6854 1092.19 31.3354 1091.7 30.6354C1091.23 29.9261 1090.99 28.9648 1090.99 27.7514C1090.99 26.9861 1091.11 26.3094 1091.35 25.7214C1091.6 25.1241 1091.96 24.6574 1092.42 24.3214C1092.87 23.9854 1093.4 23.8174 1094 23.8174C1094.69 23.8174 1095.29 24.0648 1095.8 24.5594V20.8634L1097.79 21.0874ZM1094.39 30.2014C1094.68 30.2014 1094.94 30.1314 1095.16 29.9914C1095.38 29.8421 1095.6 29.6134 1095.8 29.3054V25.9874C1095.61 25.7541 1095.41 25.5814 1095.2 25.4694C1095.01 25.3481 1094.78 25.2874 1094.52 25.2874C1094.06 25.2874 1093.7 25.4881 1093.44 25.8894C1093.19 26.2908 1093.06 26.9114 1093.06 27.7514C1093.06 28.6381 1093.17 29.2681 1093.4 29.6414C1093.63 30.0148 1093.96 30.2014 1094.39 30.2014ZM1101.74 24.0414V31.4614H1099.75V24.0414H1101.74ZM1100.73 20.2194C1101.08 20.2194 1101.37 20.3314 1101.6 20.5554C1101.83 20.7701 1101.95 21.0454 1101.95 21.3814C1101.95 21.7174 1101.83 21.9974 1101.6 22.2214C1101.37 22.4361 1101.08 22.5434 1100.73 22.5434C1100.37 22.5434 1100.08 22.4361 1099.86 22.2214C1099.64 21.9974 1099.52 21.7174 1099.52 21.3814C1099.52 21.0454 1099.64 20.7701 1099.86 20.5554C1100.08 20.3314 1100.37 20.2194 1100.73 20.2194ZM1109.97 27.5834C1109.97 27.6768 1109.96 27.9334 1109.93 28.3534H1105.29C1105.36 29.0254 1105.54 29.5014 1105.84 29.7814C1106.14 30.0614 1106.55 30.2014 1107.06 30.2014C1107.38 30.2014 1107.67 30.1501 1107.95 30.0474C1108.23 29.9448 1108.54 29.7814 1108.86 29.5574L1109.69 30.6774C1108.86 31.3494 1107.92 31.6854 1106.88 31.6854C1105.71 31.6854 1104.81 31.3354 1104.19 30.6354C1103.56 29.9354 1103.25 28.9881 1103.25 27.7934C1103.25 27.0374 1103.38 26.3608 1103.64 25.7634C1103.91 25.1568 1104.3 24.6808 1104.8 24.3354C1105.32 23.9901 1105.92 23.8174 1106.62 23.8174C1107.68 23.8174 1108.5 24.1488 1109.09 24.8114C1109.68 25.4741 1109.97 26.3981 1109.97 27.5834ZM1108 27.0234C1108 25.7914 1107.55 25.1754 1106.67 25.1754C1106.26 25.1754 1105.93 25.3294 1105.7 25.6374C1105.48 25.9361 1105.34 26.4261 1105.29 27.1074H1108V27.0234ZM1115.55 23.8174C1116.21 23.8174 1116.72 24.0181 1117.08 24.4194C1117.44 24.8114 1117.63 25.3574 1117.63 26.0574V31.4614H1115.64V26.3934C1115.64 25.9921 1115.57 25.7121 1115.43 25.5534C1115.3 25.3854 1115.1 25.3014 1114.83 25.3014C1114.55 25.3014 1114.29 25.3901 1114.06 25.5674C1113.83 25.7354 1113.61 25.9921 1113.4 26.3374V31.4614H1111.41V24.0414H1113.13L1113.29 24.9794C1113.59 24.5968 1113.93 24.3074 1114.29 24.1114C1114.67 23.9154 1115.09 23.8174 1115.55 23.8174ZM1123.96 31.1114C1123.68 31.2981 1123.38 31.4381 1123.03 31.5314C1122.7 31.6341 1122.36 31.6854 1122.02 31.6854C1121.26 31.6761 1120.68 31.4568 1120.29 31.0274C1119.9 30.5981 1119.7 29.9681 1119.7 29.1374V25.4414H1118.59V24.0414H1119.7V22.4174L1121.69 22.1794V24.0414H1123.4L1123.2 25.4414H1121.69V29.0954C1121.69 29.4501 1121.75 29.7068 1121.87 29.8654C1121.99 30.0241 1122.18 30.1034 1122.43 30.1034C1122.68 30.1034 1122.96 30.0194 1123.27 29.8514L1123.96 31.1114ZM1130.88 27.5834C1130.88 27.6768 1130.86 27.9334 1130.83 28.3534H1126.2C1126.26 29.0254 1126.45 29.5014 1126.75 29.7814C1127.04 30.0614 1127.45 30.2014 1127.96 30.2014C1128.28 30.2014 1128.58 30.1501 1128.86 30.0474C1129.14 29.9448 1129.44 29.7814 1129.77 29.5574L1130.6 30.6774C1129.76 31.3494 1128.83 31.6854 1127.78 31.6854C1126.61 31.6854 1125.72 31.3354 1125.09 30.6354C1124.47 29.9354 1124.16 28.9881 1124.16 27.7934C1124.16 27.0374 1124.29 26.3608 1124.55 25.7634C1124.82 25.1568 1125.21 24.6808 1125.71 24.3354C1126.22 23.9901 1126.83 23.8174 1127.53 23.8174C1128.58 23.8174 1129.41 24.1488 1129.99 24.8114C1130.58 25.4741 1130.88 26.3981 1130.88 27.5834ZM1128.9 27.0234C1128.9 25.7914 1128.46 25.1754 1127.57 25.1754C1127.16 25.1754 1126.84 25.3294 1126.61 25.6374C1126.38 25.9361 1126.25 26.4261 1126.2 27.1074H1128.9V27.0234Z" fill="#FF554C"/>
<mask id="path-24-inside-8_1664_10506" fill="white">
<path d="M1163 0.961426H1275V52.9614H1163V0.961426Z"/>
</mask>
<path d="M1163 0.961426H1275V52.9614H1163V0.961426Z" fill="#E4E1EC"/>
<path d="M1275 52.9614V53.9614H1276V52.9614H1275ZM1274 0.961426V52.9614H1276V0.961426H1274ZM1275 51.9614H1163V53.9614H1275V51.9614Z" fill="#000066" mask="url(#path-24-inside-8_1664_10506)"/>
</svg>
