<svg width="20" height="21" viewBox="0 0 20 21" fill="none" xmlns="http://www.w3.org/2000/svg">
<mask id="mask0_1664_10556" style="mask-type:alpha" maskUnits="userSpaceOnUse" x="0" y="0" width="20" height="21">
<rect y="0.961426" width="20" height="20" fill="#D9D9D9"/>
</mask>
<g mask="url(#mask0_1664_10556)">
<path d="M4.03325 18.2949C3.64665 18.2949 3.33325 17.9815 3.33325 17.5949V17.5949C3.33325 17.2083 3.64665 16.8949 4.03325 16.8949H15.9666C16.3532 16.8949 16.6666 17.2083 16.6666 17.5949V17.5949C16.6666 17.9815 16.3532 18.2949 15.9666 18.2949H4.03325ZM8.49992 15.4949C7.94763 15.4949 7.49992 15.0472 7.49992 14.4949V10.5949H6.45535C5.58287 10.5949 5.12882 9.55571 5.72159 8.91551L9.26616 5.08738C9.66195 4.65993 10.3379 4.65993 10.7337 5.08738L14.2782 8.91551C14.871 9.55571 14.417 10.5949 13.5445 10.5949H12.4999V14.4949C12.4999 15.0472 12.0522 15.4949 11.4999 15.4949H8.49992Z" fill="#000066"/>
</g>
</svg>
