<svg width="30" height="30" viewBox="0 0 30 30" fill="none" xmlns="http://www.w3.org/2000/svg">
<path d="M0 0H22C26.4183 0 30 3.58172 30 8V22C30 26.4183 26.4183 30 22 30H0V0Z" fill="#000066"/>
<mask id="mask0_2005_10349" style="mask-type:alpha" maskUnits="userSpaceOnUse" x="0" y="0" width="30" height="30">
<rect width="30" height="30" fill="#D9D9D9"/>
</mask>
<g mask="url(#mask0_2005_10349)">
<path d="M10.1875 25C9.60313 25 9.10286 24.7933 8.68672 24.3799C8.27057 23.9664 8.0625 23.4694 8.0625 22.8889V9.41186C8.0625 9.27644 7.95272 9.16667 7.81731 9.16667C7.36592 9.16667 7 8.80075 7 8.34936V8.05556C7 7.50327 7.44772 7.05556 8 7.05556H12.0689C12.2034 7.05556 12.3125 6.9465 12.3125 6.81197C12.3125 6.36353 12.676 6 13.1245 6H17.8755C18.324 6 18.6875 6.36353 18.6875 6.81197C18.6875 6.9465 18.7966 7.05556 18.9311 7.05556H23C23.5523 7.05556 24 7.50327 24 8.05556V8.34936C24 8.80075 23.6341 9.16667 23.1827 9.16667C23.0473 9.16667 22.9375 9.27644 22.9375 9.41186V22.8889C22.9375 23.4694 22.7294 23.9664 22.3133 24.3799C21.8971 24.7933 21.3969 25 20.8125 25H10.1875ZM20.8125 9.46667C20.8125 9.30098 20.6782 9.16667 20.5125 9.16667H10.4875C10.3218 9.16667 10.1875 9.30098 10.1875 9.46667V22.5889C10.1875 22.7546 10.3218 22.8889 10.4875 22.8889H20.5125C20.6782 22.8889 20.8125 22.7546 20.8125 22.5889V9.46667ZM12.3125 19.7778C12.3125 20.3301 12.7602 20.7778 13.3125 20.7778H13.4375C13.9898 20.7778 14.4375 20.3301 14.4375 19.7778V12.2778C14.4375 11.7255 13.9898 11.2778 13.4375 11.2778H13.3125C12.7602 11.2778 12.3125 11.7255 12.3125 12.2778V19.7778ZM16.5625 19.7778C16.5625 20.3301 17.0102 20.7778 17.5625 20.7778H17.6875C18.2398 20.7778 18.6875 20.3301 18.6875 19.7778V12.2778C18.6875 11.7255 18.2398 11.2778 17.6875 11.2778H17.5625C17.0102 11.2778 16.5625 11.7255 16.5625 12.2778V19.7778Z" fill="white"/>
</g>
</svg>