<svg width="30" height="31" viewBox="0 0 30 31" fill="none" xmlns="http://www.w3.org/2000/svg">
<mask id="mask0_1959_2178" style="mask-type:alpha" maskUnits="userSpaceOnUse" x="0" y="0" width="30" height="31">
<rect y="0.734375" width="30" height="29.5312" fill="#D9D9D9"/>
</mask>
<g mask="url(#mask0_1959_2178)">
<path d="M6 26.3281C5.44772 26.3281 5 25.8804 5 25.3281V25.2609C5 24.7087 5.44772 24.2609 6 24.2609H24C24.5523 24.2609 25 24.7087 25 25.2609V25.3281C25 25.8804 24.5523 26.3281 24 26.3281H6ZM15.7284 21.4194C15.3335 21.8392 14.6665 21.8392 14.2716 21.4194L7.83509 14.5766C7.23474 13.9383 7.68726 12.8914 8.56349 12.8914H11.25V6.65625C11.25 6.10397 11.6977 5.65625 12.25 5.65625H17.75C18.3023 5.65625 18.75 6.10397 18.75 6.65625V12.8914H21.4365C22.3127 12.8914 22.7653 13.9383 22.1649 14.5766L15.7284 21.4194Z" fill="white"/>
</g>
</svg>
