<svg width="30" height="30" viewBox="0 0 30 30" fill="none" xmlns="http://www.w3.org/2000/svg">
<mask id="mask0_948_19091" style="mask-type:alpha" maskUnits="userSpaceOnUse" x="0" y="0" width="30" height="30">
<rect width="30" height="30" fill="#D9D9D9"/>
</mask>
<g mask="url(#mask0_948_19091)">
<path d="M8 22H9.425L19.2 12.225L17.775 10.8L8 20.575V22ZM6 24V19.75L19.2 6.575C19.4 6.39167 19.6208 6.25 19.8625 6.15C20.1042 6.05 20.3583 6 20.625 6C20.8917 6 21.15 6.05 21.4 6.15C21.65 6.25 21.8667 6.4 22.05 6.6L23.425 8C23.625 8.18333 23.7708 8.4 23.8625 8.65C23.9542 8.9 24 9.15 24 9.4C24 9.66667 23.9542 9.92083 23.8625 10.1625C23.7708 10.4042 23.625 10.625 23.425 10.825L10.25 24H6ZM18.475 11.525L17.775 10.8L19.2 12.225L18.475 11.525Z" fill="white"/>
</g>
</svg>
