<svg width="21" height="22" viewBox="0 0 21 22" fill="none" xmlns="http://www.w3.org/2000/svg">
<mask id="path-1-inside-1_2061_11807" fill="white">
<path fill-rule="evenodd" clip-rule="evenodd" d="M8.944 0.25H11.056C12.894 0.25 14.35 0.25 15.489 0.403C16.661 0.561 17.61 0.893 18.359 1.641C18.4915 1.78317 18.5636 1.97122 18.5602 2.16552C18.5567 2.35982 18.478 2.54521 18.3406 2.68262C18.2032 2.82003 18.0178 2.89875 17.8235 2.90217C17.6292 2.9056 17.4412 2.83348 17.299 2.701C16.875 2.279 16.295 2.025 15.289 1.89C14.262 1.752 12.907 1.75 11 1.75H9C7.093 1.75 5.739 1.752 4.71 1.89C3.705 2.025 3.125 2.279 2.702 2.702C2.279 3.125 2.025 3.705 1.89 4.71C1.752 5.739 1.75 7.093 1.75 9V13C1.75 14.907 1.752 16.262 1.89 17.29C2.025 18.295 2.279 18.875 2.702 19.298C3.125 19.721 3.705 19.975 4.711 20.11C5.739 20.248 7.093 20.25 9 20.25H11C12.907 20.25 14.262 20.248 15.29 20.11C16.295 19.975 16.875 19.721 17.298 19.298C17.994 18.602 18.205 17.521 18.241 14.989C18.2439 14.7901 18.3257 14.6005 18.4684 14.4619C18.5391 14.3933 18.6226 14.3392 18.7141 14.3029C18.8057 14.2665 18.9035 14.2486 19.002 14.25C19.1005 14.2514 19.1977 14.2723 19.2882 14.3113C19.3786 14.3503 19.4605 14.4068 19.5291 14.4774C19.5977 14.5481 19.6518 14.6316 19.6881 14.7232C19.7245 14.8147 19.7424 14.9125 19.741 15.011C19.706 17.438 19.549 19.169 18.359 20.359C17.61 21.107 16.661 21.439 15.489 21.597C14.349 21.75 12.894 21.75 11.056 21.75H8.944C7.106 21.75 5.65 21.75 4.511 21.597C3.339 21.439 2.39 21.107 1.641 20.359C0.893 19.61 0.561 18.661 0.403 17.489C0.25 16.349 0.25 14.894 0.25 13.056V8.944C0.25 7.106 0.25 5.65 0.403 4.511C0.561 3.339 0.893 2.39 1.641 1.641C2.39 0.893 3.339 0.561 4.511 0.403C5.651 0.25 7.106 0.25 8.944 0.25ZM16.114 6.046C16.364 5.78432 16.6637 5.57523 16.9957 5.43103C17.3276 5.28682 17.685 5.21041 18.0469 5.20627C18.4087 5.20213 18.7678 5.27036 19.1029 5.40693C19.4381 5.54351 19.7425 5.74569 19.9984 6.00159C20.2543 6.25749 20.4565 6.56195 20.5931 6.89708C20.7296 7.23222 20.7979 7.59127 20.7937 7.95314C20.7896 8.31501 20.7132 8.67241 20.569 9.00434C20.4248 9.33626 20.2157 9.63602 19.954 9.886L15.2 14.643C15.0022 14.8514 14.7918 15.0474 14.57 15.23C14.3393 15.41 14.0913 15.5633 13.826 15.69C13.602 15.797 13.366 15.875 13.02 15.99L10.936 16.685C10.7103 16.7605 10.4681 16.7716 10.2365 16.7171C10.0049 16.6625 9.79302 16.5445 9.62476 16.3762C9.4565 16.208 9.33847 15.9961 9.28393 15.7645C9.22939 15.5329 9.2405 15.2907 9.316 15.065L9.997 13.025L10.011 12.982C10.127 12.635 10.205 12.4 10.312 12.176C10.4377 11.9119 10.5919 11.6624 10.772 11.432C10.925 11.236 11.1 11.061 11.359 10.802L11.39 10.771L16.114 6.046ZM18.894 7.106C18.7811 6.99304 18.647 6.90343 18.4994 6.84229C18.3519 6.78115 18.1937 6.74968 18.034 6.74968C17.8743 6.74968 17.7161 6.78115 17.5686 6.84229C17.421 6.90343 17.2869 6.99304 17.174 7.106L16.992 7.288L17.026 7.395C17.12 7.665 17.299 8.025 17.637 8.363C17.9361 8.66411 18.3056 8.88581 18.712 9.008L18.894 8.826C19.007 8.71308 19.0966 8.57901 19.1577 8.43145C19.2188 8.28389 19.2503 8.12572 19.2503 7.966C19.2503 7.80627 19.2188 7.64812 19.1577 7.50055C19.0966 7.35299 19.007 7.21892 18.894 7.106ZM17.566 10.154C17.2003 9.96317 16.8664 9.71692 16.576 9.424C16.2831 9.13361 16.0368 8.79966 15.846 8.434L12.45 11.83C12.149 12.131 12.043 12.239 11.954 12.353C11.8407 12.4983 11.7443 12.654 11.665 12.82C11.603 12.951 11.554 13.094 11.419 13.498L11.019 14.698L11.302 14.981L12.502 14.581C12.906 14.446 13.049 14.397 13.18 14.335C13.3453 14.255 13.501 14.1587 13.647 14.046C13.761 13.957 13.869 13.851 14.17 13.55L17.566 10.154ZM5.25 8C5.25 7.80109 5.32902 7.61032 5.46967 7.46967C5.61032 7.32902 5.80109 7.25 6 7.25H12.5C12.6989 7.25 12.8897 7.32902 13.0303 7.46967C13.171 7.61032 13.25 7.80109 13.25 8C13.25 8.19891 13.171 8.38968 13.0303 8.53033C12.8897 8.67098 12.6989 8.75 12.5 8.75H6C5.80109 8.75 5.61032 8.67098 5.46967 8.53033C5.32902 8.38968 5.25 8.19891 5.25 8ZM5.25 12C5.25 11.8011 5.32902 11.6103 5.46967 11.4697C5.61032 11.329 5.80109 11.25 6 11.25H8.5C8.69891 11.25 8.88968 11.329 9.03033 11.4697C9.17098 11.6103 9.25 11.8011 9.25 12C9.25 12.1989 9.17098 12.3897 9.03033 12.5303C8.88968 12.671 8.69891 12.75 8.5 12.75H6C5.80109 12.75 5.61032 12.671 5.46967 12.5303C5.32902 12.3897 5.25 12.1989 5.25 12ZM5.25 16C5.25 15.8011 5.32902 15.6103 5.46967 15.4697C5.61032 15.329 5.80109 15.25 6 15.25H7.5C7.69891 15.25 7.88968 15.329 8.03033 15.4697C8.17098 15.6103 8.25 15.8011 8.25 16C8.25 16.1989 8.17098 16.3897 8.03033 16.5303C7.88968 16.671 7.69891 16.75 7.5 16.75H6C5.80109 16.75 5.61032 16.671 5.46967 16.5303C5.32902 16.3897 5.25 16.1989 5.25 16Z"/>
</mask>
<path fill-rule="evenodd" clip-rule="evenodd" d="M8.944 0.25H11.056C12.894 0.25 14.35 0.25 15.489 0.403C16.661 0.561 17.61 0.893 18.359 1.641C18.4915 1.78317 18.5636 1.97122 18.5602 2.16552C18.5567 2.35982 18.478 2.54521 18.3406 2.68262C18.2032 2.82003 18.0178 2.89875 17.8235 2.90217C17.6292 2.9056 17.4412 2.83348 17.299 2.701C16.875 2.279 16.295 2.025 15.289 1.89C14.262 1.752 12.907 1.75 11 1.75H9C7.093 1.75 5.739 1.752 4.71 1.89C3.705 2.025 3.125 2.279 2.702 2.702C2.279 3.125 2.025 3.705 1.89 4.71C1.752 5.739 1.75 7.093 1.75 9V13C1.75 14.907 1.752 16.262 1.89 17.29C2.025 18.295 2.279 18.875 2.702 19.298C3.125 19.721 3.705 19.975 4.711 20.11C5.739 20.248 7.093 20.25 9 20.25H11C12.907 20.25 14.262 20.248 15.29 20.11C16.295 19.975 16.875 19.721 17.298 19.298C17.994 18.602 18.205 17.521 18.241 14.989C18.2439 14.7901 18.3257 14.6005 18.4684 14.4619C18.5391 14.3933 18.6226 14.3392 18.7141 14.3029C18.8057 14.2665 18.9035 14.2486 19.002 14.25C19.1005 14.2514 19.1977 14.2723 19.2882 14.3113C19.3786 14.3503 19.4605 14.4068 19.5291 14.4774C19.5977 14.5481 19.6518 14.6316 19.6881 14.7232C19.7245 14.8147 19.7424 14.9125 19.741 15.011C19.706 17.438 19.549 19.169 18.359 20.359C17.61 21.107 16.661 21.439 15.489 21.597C14.349 21.75 12.894 21.75 11.056 21.75H8.944C7.106 21.75 5.65 21.75 4.511 21.597C3.339 21.439 2.39 21.107 1.641 20.359C0.893 19.61 0.561 18.661 0.403 17.489C0.25 16.349 0.25 14.894 0.25 13.056V8.944C0.25 7.106 0.25 5.65 0.403 4.511C0.561 3.339 0.893 2.39 1.641 1.641C2.39 0.893 3.339 0.561 4.511 0.403C5.651 0.25 7.106 0.25 8.944 0.25ZM16.114 6.046C16.364 5.78432 16.6637 5.57523 16.9957 5.43103C17.3276 5.28682 17.685 5.21041 18.0469 5.20627C18.4087 5.20213 18.7678 5.27036 19.1029 5.40693C19.4381 5.54351 19.7425 5.74569 19.9984 6.00159C20.2543 6.25749 20.4565 6.56195 20.5931 6.89708C20.7296 7.23222 20.7979 7.59127 20.7937 7.95314C20.7896 8.31501 20.7132 8.67241 20.569 9.00434C20.4248 9.33626 20.2157 9.63602 19.954 9.886L15.2 14.643C15.0022 14.8514 14.7918 15.0474 14.57 15.23C14.3393 15.41 14.0913 15.5633 13.826 15.69C13.602 15.797 13.366 15.875 13.02 15.99L10.936 16.685C10.7103 16.7605 10.4681 16.7716 10.2365 16.7171C10.0049 16.6625 9.79302 16.5445 9.62476 16.3762C9.4565 16.208 9.33847 15.9961 9.28393 15.7645C9.22939 15.5329 9.2405 15.2907 9.316 15.065L9.997 13.025L10.011 12.982C10.127 12.635 10.205 12.4 10.312 12.176C10.4377 11.9119 10.5919 11.6624 10.772 11.432C10.925 11.236 11.1 11.061 11.359 10.802L11.39 10.771L16.114 6.046ZM18.894 7.106C18.7811 6.99304 18.647 6.90343 18.4994 6.84229C18.3519 6.78115 18.1937 6.74968 18.034 6.74968C17.8743 6.74968 17.7161 6.78115 17.5686 6.84229C17.421 6.90343 17.2869 6.99304 17.174 7.106L16.992 7.288L17.026 7.395C17.12 7.665 17.299 8.025 17.637 8.363C17.9361 8.66411 18.3056 8.88581 18.712 9.008L18.894 8.826C19.007 8.71308 19.0966 8.57901 19.1577 8.43145C19.2188 8.28389 19.2503 8.12572 19.2503 7.966C19.2503 7.80627 19.2188 7.64812 19.1577 7.50055C19.0966 7.35299 19.007 7.21892 18.894 7.106ZM17.566 10.154C17.2003 9.96317 16.8664 9.71692 16.576 9.424C16.2831 9.13361 16.0368 8.79966 15.846 8.434L12.45 11.83C12.149 12.131 12.043 12.239 11.954 12.353C11.8407 12.4983 11.7443 12.654 11.665 12.82C11.603 12.951 11.554 13.094 11.419 13.498L11.019 14.698L11.302 14.981L12.502 14.581C12.906 14.446 13.049 14.397 13.18 14.335C13.3453 14.255 13.501 14.1587 13.647 14.046C13.761 13.957 13.869 13.851 14.17 13.55L17.566 10.154ZM5.25 8C5.25 7.80109 5.32902 7.61032 5.46967 7.46967C5.61032 7.32902 5.80109 7.25 6 7.25H12.5C12.6989 7.25 12.8897 7.32902 13.0303 7.46967C13.171 7.61032 13.25 7.80109 13.25 8C13.25 8.19891 13.171 8.38968 13.0303 8.53033C12.8897 8.67098 12.6989 8.75 12.5 8.75H6C5.80109 8.75 5.61032 8.67098 5.46967 8.53033C5.32902 8.38968 5.25 8.19891 5.25 8ZM5.25 12C5.25 11.8011 5.32902 11.6103 5.46967 11.4697C5.61032 11.329 5.80109 11.25 6 11.25H8.5C8.69891 11.25 8.88968 11.329 9.03033 11.4697C9.17098 11.6103 9.25 11.8011 9.25 12C9.25 12.1989 9.17098 12.3897 9.03033 12.5303C8.88968 12.671 8.69891 12.75 8.5 12.75H6C5.80109 12.75 5.61032 12.671 5.46967 12.5303C5.32902 12.3897 5.25 12.1989 5.25 12ZM5.25 16C5.25 15.8011 5.32902 15.6103 5.46967 15.4697C5.61032 15.329 5.80109 15.25 6 15.25H7.5C7.69891 15.25 7.88968 15.329 8.03033 15.4697C8.17098 15.6103 8.25 15.8011 8.25 16C8.25 16.1989 8.17098 16.3897 8.03033 16.5303C7.88968 16.671 7.69891 16.75 7.5 16.75H6C5.80109 16.75 5.61032 16.671 5.46967 16.5303C5.32902 16.3897 5.25 16.1989 5.25 16Z" fill="black" stroke="white" stroke-width="2" mask="url(#path-1-inside-1_2061_11807)"/>
</svg>
