<svg width="20" height="21" viewBox="0 0 20 21" fill="none" xmlns="http://www.w3.org/2000/svg">
<path d="M1 21C0.447715 21 0 20.5523 0 20V19.9C0 19.3477 0.447715 18.9 1 18.9H19C19.5523 18.9 20 19.3477 20 19.9V20C20 20.5523 19.5523 21 19 21H1ZM7.25 16.8C6.69772 16.8 6.25 16.3523 6.25 15.8V9.45H3.53877C2.66628 9.45 2.21223 8.41079 2.80501 7.77059L9.26624 0.792462C9.66203 0.365006 10.338 0.365005 10.7338 0.792461L17.195 7.77059C17.7878 8.41079 17.3337 9.45 16.4612 9.45H13.75V15.8C13.75 16.3523 13.3023 16.8 12.75 16.8H7.25Z" fill="white"/>
</svg>

