<svg width="30" height="30" viewBox="0 0 20 20" fill="none" xmlns="http://www.w3.org/2000/svg">
<mask id="mask0_31_1800" style="mask-type:alpha" maskUnits="userSpaceOnUse" x="0" y="0" width="20" height="20">
<rect width="20" height="20" fill="#D9D9D9"/>
</mask>
<g mask="url(#mask0_31_1800)">
<path d="M4.0335 17.334C3.6469 17.334 3.3335 17.0206 3.3335 16.634C3.3335 16.2474 3.6469 15.934 4.0335 15.934H15.9668C16.3534 15.934 16.6668 16.2474 16.6668 16.634C16.6668 17.0206 16.3534 17.334 15.9668 17.334H4.0335ZM8.50016 14.534C7.94788 14.534 7.50016 14.0863 7.50016 13.534V9.63398H6.4556C5.58311 9.63398 5.12906 8.59477 5.72184 7.95458L9.2664 4.12645C9.66219 3.69899 10.3381 3.69899 10.7339 4.12645L14.2785 7.95458C14.8713 8.59477 14.4172 9.63398 13.5447 9.63398H12.5002V13.534C12.5002 14.0863 12.0524 14.534 11.5002 14.534H8.50016Z" fill="white"/>
</g>
</svg>
