<svg width="30" height="30" viewBox="0 0 30 30" fill="none" xmlns="http://www.w3.org/2000/svg">
<mask id="mask0_1147_12689" style="mask-type:alpha" maskUnits="userSpaceOnUse" x="0" y="0" width="30" height="30">
<rect width="30" height="30" fill="#D9D9D9"/>
</mask>
<g mask="url(#mask0_1147_12689)">
<path d="M8.29382 21.0452C10.3105 22.4149 12.5468 23.1 15 23.1C17.4532 23.1 19.6895 22.4149 21.7062 21.0452C23.6144 19.7492 25.0268 18.0349 25.9418 15.9041C26.0526 15.6461 26.0526 15.3539 25.9418 15.0959C25.0268 12.9651 23.6144 11.2508 21.7062 9.95478C19.6895 8.58511 17.4532 7.9 15 7.9C12.5468 7.9 10.3105 8.58511 8.29382 9.95478C6.38557 11.2508 4.97325 12.9651 4.05819 15.0959C3.94742 15.3539 3.94742 15.6461 4.05819 15.9041C4.97325 18.0349 6.38557 19.7492 8.29382 21.0452ZM20.1342 19.4279C18.5754 20.4094 16.8647 20.9 15 20.9C13.1353 20.9 11.4246 20.4094 9.86578 19.4279C8.44428 18.5329 7.32849 17.3539 6.51726 15.89C6.38276 15.6473 6.38276 15.3527 6.51726 15.11C7.32849 13.6461 8.44428 12.4671 9.86578 11.5721C11.4246 10.5906 13.1353 10.1 15 10.1C16.8647 10.1 18.5754 10.5906 20.1342 11.5721C21.5557 12.4671 22.6715 13.6461 23.4827 15.11C23.6172 15.3527 23.6172 15.6473 23.4827 15.89C22.6715 17.3539 21.5557 18.5329 20.1342 19.4279ZM14.7955 19.6C16.0141 19.6 17.0536 19.1819 17.908 18.3465C18.7624 17.511 19.1909 16.4936 19.1909 15.3C19.1909 14.1064 18.7624 13.089 17.908 12.2535C17.0536 11.4181 16.0141 11 14.7955 11C13.5768 11 12.5373 11.4181 11.6829 12.2535C10.8285 13.089 10.4 14.1064 10.4 15.3C10.4 16.4936 10.8285 17.511 11.6829 18.3465C12.5373 19.1819 13.5768 19.6 14.7955 19.6ZM14.7955 17.72C14.1051 17.72 13.5218 17.4848 13.0398 17.0135C12.5579 16.5423 12.3182 15.9731 12.3182 15.3C12.3182 14.627 12.5579 14.0577 13.0398 13.5865C13.5218 13.1152 14.1051 12.88 14.7955 12.88C15.4859 12.88 16.0691 13.1152 16.5511 13.5865C17.033 14.0577 17.2727 14.627 17.2727 15.3C17.2727 15.9731 17.033 16.5423 16.5511 17.0135C16.0691 17.4848 15.4859 17.72 14.7955 17.72Z" fill="white" stroke="white" stroke-width="0.2"/>
</g>
</svg>
